<svg version="1.1" id="Layer_1" xmlns="http://www.w3.org/2000/svg" xmlns:xlink="http://www.w3.org/1999/xlink" x="0px" y="0px"
	 width="100%" viewBox="0 0 666 280" enable-background="new 0 0 666 280" xml:space="preserve">
<path fill="#000000" opacity="1.000000" stroke="none" 
	d="
M218.000000,1.000001 
	C234.687561,1.000000 251.375122,1.000000 268.515656,1.307969 
	C268.968536,2.027076 268.968475,2.438214 268.736603,2.958604 
	C268.377747,3.364283 268.250671,3.660711 268.055603,4.424190 
	C267.975403,78.112083 267.962616,151.332932 267.958252,224.553772 
	C267.958191,225.382278 268.067535,226.210785 268.143707,227.296494 
	C268.430023,227.759613 268.698425,227.965546 269.062866,228.427521 
	C269.716431,229.134277 270.273895,229.584991 270.947968,230.264282 
	C271.361755,230.620026 271.658966,230.747177 272.423187,230.943024 
	C310.143250,231.025696 347.396271,231.058350 384.649323,231.044586 
	C400.112549,231.038864 415.575714,230.934036 431.294647,230.857056 
	C431.747284,230.568787 431.944183,230.297729 432.499817,230.028809 
	C433.915131,229.065735 434.971710,228.100540 436.261902,227.031830 
	C436.622437,226.633133 436.749329,226.337936 436.944214,225.575684 
	C436.966553,209.059525 436.920898,193.010376 436.858093,176.704865 
	C436.570190,176.249237 436.299469,176.050003 436.032501,175.482513 
	C434.406708,173.732559 432.777130,172.350906 431.039520,170.737045 
	C430.635315,170.377960 430.339142,170.251083 429.575928,170.056305 
	C399.460907,169.974487 369.812988,169.963058 340.165070,169.944763 
	C333.485870,169.940643 333.057037,169.517593 333.056183,162.853027 
	C333.050934,123.044624 333.067627,83.236221 333.045502,43.427830 
	C333.038361,30.605869 332.936066,17.783962 332.861511,4.704722 
	C332.573242,4.249426 332.300751,4.051436 332.033264,3.496665 
	C332.025482,2.426589 332.012756,1.713294 332.000000,1.000000 
	C376.687561,1.000000 421.375122,1.000000 466.520477,1.310253 
	C466.971985,2.034360 466.965698,2.448216 466.585449,3.098672 
	C466.143951,3.827886 466.017365,4.320489 466.017303,4.813113 
	C466.005493,77.732857 465.998352,150.652603 466.039795,223.572327 
	C466.040466,224.760590 466.639832,225.948517 466.967407,227.512177 
	C468.279266,228.938171 469.583618,229.988602 471.116577,231.416504 
	C488.920502,231.860733 506.495789,231.938278 524.071106,231.953598 
	C524.752441,231.954193 525.434326,231.357574 526.491272,231.021515 
	C527.924683,229.713898 528.982788,228.423981 530.415405,226.898727 
	C530.809387,200.784805 530.828674,174.906189 530.985291,148.715195 
	C532.085999,147.218384 533.049438,146.033966 534.476929,144.915985 
	C556.952026,144.937973 578.963074,144.893524 601.258606,144.967468 
	C602.315369,145.736176 603.087646,146.386475 603.923096,147.499420 
	C603.991028,173.008636 603.977234,198.055237 604.041443,223.101624 
	C604.045776,224.783875 604.640015,226.464615 605.097839,228.469543 
	C607.115967,229.542252 608.996216,230.291458 611.108887,231.416351 
	C628.587158,231.859360 645.832886,231.937698 663.078735,231.953369 
	C663.762573,231.953995 664.446960,231.357986 665.442566,231.031830 
	C666.169373,231.015793 666.584656,231.007904 667.000000,231.000000 
	C667.000000,234.692902 667.000000,238.385818 666.531372,242.536087 
	C658.438599,242.997894 650.811340,242.868164 643.191345,243.048492 
	C636.901733,243.197342 634.103516,245.672821 634.103577,251.779800 
	C634.103638,261.519867 634.671997,271.259918 635.000000,281.000000 
	C634.250000,281.000000 633.500000,281.000000 632.376892,280.531342 
	C632.004578,270.756256 632.028564,261.449738 631.998596,252.143402 
	C631.975403,244.935318 630.147034,243.098923 622.768982,243.012650 
	C616.122437,242.934906 609.463013,243.231140 602.830566,242.915665 
	C598.079285,242.689667 596.825256,244.677719 596.920288,249.093826 
	C597.149048,259.724854 596.997925,270.364075 597.000000,281.000000 
	C596.555542,281.000000 596.111084,281.000000 595.335083,280.531342 
	C595.001953,269.897888 595.006470,259.733093 594.995728,249.568298 
	C594.991333,245.391663 593.866760,242.241684 588.708496,242.998993 
	C585.792236,243.427124 582.554688,244.955948 580.029297,244.168732 
	C570.774536,241.283890 563.288818,242.591949 557.948914,251.664612 
	C557.526794,250.849487 557.136108,250.445694 557.134766,250.040649 
	C557.106873,241.326660 554.330505,243.091217 546.856628,243.036926 
	C541.076599,242.994919 542.109131,247.619492 542.051208,251.006561 
	C541.880188,261.001740 541.996277,271.001831 542.000000,281.000000 
	C541.555542,281.000000 541.111084,281.000000 540.335571,280.550018 
	C540.010010,269.397217 539.624207,269.018250 528.702881,268.993469 
	C527.704651,268.991211 526.704895,268.949097 525.708374,268.988708 
	C520.979980,269.176697 522.027588,265.659729 522.062256,263.050171 
	C522.096252,260.491913 520.838440,256.932739 525.609741,257.009399 
	C528.936279,257.062866 532.266479,256.927765 535.591492,257.014893 
	C538.795837,257.098846 540.163635,255.602997 540.008850,252.473694 
	C539.934998,250.979843 539.990967,249.479599 539.987122,247.982254 
	C539.978333,244.523346 538.453308,242.840744 534.787842,242.953934 
	C529.302612,243.123322 523.808228,242.990173 518.317749,242.994690 
	C509.397919,243.002045 507.000031,245.155930 507.055298,254.157806 
	C507.110229,263.106812 507.664612,272.052734 508.000000,281.000000 
	C507.250000,281.000000 506.500000,281.000000 505.376587,280.531342 
	C505.004303,270.587708 505.038788,261.112610 504.994812,251.637848 
	C504.964996,245.208313 503.140839,243.228760 496.755341,243.041840 
	C490.942291,242.871689 485.120422,242.978195 479.302582,242.999832 
	C471.969360,243.027100 470.089966,244.785919 470.020111,252.076645 
	C469.927765,261.716949 469.999023,271.358826 470.000000,281.000000 
	C469.555542,281.000000 469.111115,281.000000 468.336365,280.531342 
	C468.007935,270.431061 468.019592,260.799408 468.008545,251.167786 
	C467.999329,243.120682 467.839050,242.968933 460.014435,242.994217 
	C453.505249,243.015274 453.095673,243.434525 452.992920,250.147339 
	C452.975098,251.308853 453.270813,252.632172 452.810730,253.586075 
	C452.343506,254.554749 451.045105,255.844757 450.246338,255.757156 
	C449.128754,255.634598 447.498810,254.540283 447.228668,253.550446 
	C446.720581,251.688828 447.194336,249.583084 446.940613,247.620102 
	C446.762115,246.239349 446.186584,243.837723 445.563110,243.762680 
	C441.830170,243.313263 437.868530,242.762115 434.341522,243.656586 
	C433.054382,243.983002 432.157745,248.165298 432.098572,250.613037 
	C431.854004,260.736908 431.998444,270.870178 432.000000,281.000000 
	C425.978851,281.000000 419.957703,281.000000 413.472229,280.542847 
	C412.298676,276.358551 415.093262,271.652954 409.933075,269.142853 
	C410.282043,267.547943 410.939789,265.936829 410.924011,264.332367 
	C410.887604,260.635437 410.877014,257.338562 412.566101,253.567871 
	C415.493683,247.032227 412.009399,242.996628 404.844788,242.993744 
	C399.013184,242.991409 393.181549,242.986343 387.349945,242.995529 
	C380.733185,243.005966 380.048035,243.647644 380.010315,250.509125 
	C379.954437,260.672455 379.998505,270.836365 380.000000,281.000000 
	C379.555542,281.000000 379.111115,281.000000 378.315674,280.531586 
	C377.978424,270.917328 378.092407,261.770233 377.979431,252.625946 
	C377.849060,242.075821 380.074127,243.091522 368.021515,242.961151 
	C364.975525,242.928207 363.905853,244.151413 363.962158,247.107971 
	C364.079315,253.258255 364.146362,259.421051 363.830627,265.557922 
	C363.770416,266.728119 361.851440,267.802673 360.790070,268.921356 
	C359.871338,267.828064 358.241333,266.785126 358.159698,265.632538 
	C357.843170,261.164673 358.021790,256.661926 358.011719,252.172150 
	C357.991364,243.118561 357.734070,243.098129 348.850830,242.901138 
	C344.127045,242.796371 342.821716,244.631119 342.919403,249.074875 
	C343.153198,259.712036 342.998108,270.357727 343.000000,281.000000 
	C342.555542,281.000000 342.111115,281.000000 341.315796,280.531647 
	C340.976166,274.413391 341.115112,268.758728 340.905731,263.117004 
	C340.855682,261.767670 339.741669,259.390167 338.952057,259.319092 
	C335.357666,258.995667 331.517242,258.712524 328.167084,259.733490 
	C326.878937,260.126038 326.803497,264.084137 325.887878,266.298706 
	C325.471436,267.305969 324.355896,268.024231 323.557495,268.873566 
	C322.728088,268.057800 321.375458,267.363586 321.153229,266.406799 
	C319.584167,259.651093 321.030762,258.013062 328.199646,258.005829 
	C339.245453,257.994629 339.520020,257.612549 339.064178,246.992432 
	C338.933472,243.947647 337.801086,242.906479 334.869415,242.961960 
	C328.556915,243.081451 322.239288,242.917892 315.926178,243.020248 
	C308.814636,243.135544 306.025208,246.008728 306.002380,253.083130 
	C305.972351,262.388641 305.998169,271.694366 306.000000,281.000000 
	C305.555542,281.000000 305.111115,281.000000 304.335419,280.531342 
	C304.004608,270.924286 304.039581,261.785736 303.994110,252.647583 
	C303.960632,245.929367 301.445435,243.250336 294.732727,243.039993 
	C289.254974,242.868362 283.767700,242.977890 278.284790,242.998734 
	C270.978516,243.026520 269.085968,244.807693 269.019562,252.089676 
	C268.931671,261.725708 268.999268,271.363159 269.000000,281.000000 
	C268.555542,281.000000 268.111115,281.000000 267.335327,280.559082 
	C266.654053,276.372742 266.932495,273.025208 263.936737,269.346802 
	C262.023163,266.997223 264.674042,260.990082 265.158600,256.609528 
	C265.578705,252.811340 266.515930,248.853195 265.776642,245.264008 
	C265.524689,244.040619 260.895081,243.235703 258.220184,243.093002 
	C252.252258,242.774612 246.239960,243.261093 240.275528,242.911469 
	C235.265381,242.617798 233.777710,244.884338 233.961975,249.408844 
	C234.130951,253.558151 234.040955,257.720428 233.979965,261.875732 
	C233.942520,264.427307 233.745026,266.976501 233.620361,269.507355 
	C229.954071,269.307800 226.993988,268.967987 224.043228,269.035583 
	C221.006775,269.105133 219.907074,267.851318 219.976028,264.885986 
	C220.103546,259.402832 220.108582,253.911316 219.937378,248.430389 
	C219.890198,246.920044 219.242279,244.260529 218.521866,244.135590 
	C214.842758,243.497498 210.948914,242.967346 207.355103,243.626282 
	C206.212143,243.835861 205.151031,247.806564 205.098633,250.080322 
	C204.861191,260.382172 204.997955,270.692627 205.000000,281.000000 
	C199.311966,281.000000 193.623917,281.000000 187.325989,280.664612 
	C185.769806,277.127625 184.015167,273.916077 184.054489,270.726654 
	C184.124725,265.029419 185.926376,259.334137 185.826675,253.658768 
	C185.673721,244.951614 183.137238,243.000275 174.459671,242.994659 
	C168.642395,242.990891 162.824982,242.969467 157.007889,243.002579 
	C151.291641,243.035126 150.058304,244.213943 150.017151,250.085480 
	C149.944962,260.389862 149.998886,270.695129 150.000000,281.000000 
	C149.250000,281.000000 148.500000,281.000000 147.397522,280.578522 
	C147.337418,270.053223 147.852890,259.948425 147.809555,249.846039 
	C147.792816,245.944092 144.914902,243.299255 140.988968,243.144302 
	C133.853287,242.862656 126.690102,242.917770 119.553314,243.204086 
	C116.737236,243.317078 114.522156,244.475220 113.658455,248.073563 
	C111.002243,259.139954 111.187073,270.052551 114.000000,281.000000 
	C112.933327,281.000000 111.866661,281.000000 110.407013,280.572510 
	C110.344826,270.861389 110.810204,261.580109 110.968399,252.293579 
	C111.125137,243.092545 110.611191,242.872925 101.455772,242.924515 
	C97.570770,242.946411 95.974403,244.523987 95.996460,248.236176 
	C96.028107,253.562073 96.037346,258.889038 95.957428,264.214081 
	C95.935036,265.705719 95.565895,267.192169 95.355820,268.681030 
	C93.823517,267.952057 93.091599,267.159241 93.099319,266.373688 
	C93.143318,261.897583 90.735626,260.533630 86.699257,260.983978 
	C86.041656,261.057343 85.358162,260.916992 84.704826,261.007172 
	C80.484283,261.589752 78.311661,260.105438 78.985603,255.542282 
	C79.129898,254.565323 79.033806,253.546906 78.994377,252.549713 
	C78.726868,245.782669 76.258461,243.215714 69.515907,243.030914 
	C64.359993,242.889633 59.197075,242.968658 54.037582,243.000549 
	C45.504566,243.053284 43.131149,245.350540 43.021397,254.036652 
	C42.907845,263.023102 42.998608,272.012115 43.000000,281.000000 
	C42.555553,281.000000 42.111111,281.000000 41.335571,280.531342 
	C41.005180,270.787079 41.065506,261.510986 40.987385,252.236053 
	C40.926773,245.039627 38.978527,243.073242 31.808056,243.017334 
	C21.539284,242.937256 11.269406,242.998871 1.000000,243.000000 
	C1.000000,238.975449 1.000000,234.950912 1.356112,230.480560 
	C2.425287,230.036301 3.138348,230.037857 3.955716,230.278305 
	C4.361137,230.632004 4.662252,230.746811 5.429026,230.936829 
	C22.606518,230.962234 39.318352,230.912415 56.292786,230.868286 
	C56.755402,230.595291 56.955421,230.316574 57.446552,229.922134 
	C58.171589,228.920563 58.605511,228.034683 59.278152,227.044312 
	C59.631668,226.638763 59.746464,226.337738 59.936653,225.571060 
	C60.012047,169.554001 60.012047,114.002579 60.012047,58.402351 
	C70.307274,58.402351 80.012291,58.402351 89.956253,58.402351 
	C89.956253,60.575729 89.956261,62.391670 89.956261,64.207611 
	C89.956268,106.164345 89.943642,148.121078 89.964600,190.077820 
	C89.970253,201.395355 90.077744,212.712814 90.132339,224.291656 
	C90.407875,224.742798 90.689560,224.932602 90.981422,225.508820 
	C90.744568,228.706085 91.689461,230.406250 94.956741,230.277924 
	C95.361450,230.631714 95.662407,230.746475 96.429016,230.936600 
	C112.273140,230.962311 127.651619,230.912674 143.292816,230.868744 
	C143.755615,230.595596 143.955704,230.316742 144.419312,229.948853 
	C145.135422,229.290573 145.587967,228.721344 146.279266,228.046631 
	C146.632950,227.639542 146.747879,227.337936 146.937744,226.570648 
	C147.012711,170.220261 147.012711,114.335564 147.012711,58.402390 
	C157.307541,58.402390 167.012634,58.402390 176.956619,58.402390 
	C176.956619,60.575836 176.956619,62.391811 176.956619,64.207787 
	C176.956619,106.830742 176.944504,149.453705 176.964935,192.076660 
	C176.970200,203.061264 177.077835,214.045822 177.132675,225.292725 
	C177.405563,225.754364 177.684219,225.953705 177.962082,226.525909 
	C179.257996,227.945648 180.554688,228.992508 181.955780,230.278168 
	C182.361221,230.631760 182.662247,230.746552 183.428925,230.936676 
	C200.606445,230.962280 217.318298,230.912567 234.292786,230.868530 
	C234.755005,230.595230 234.954605,230.316238 235.474274,229.894989 
	C236.538849,227.871490 237.283371,225.990265 238.272461,224.021362 
	C238.632080,223.634415 238.747131,223.335175 238.937241,222.570282 
	C239.022568,163.215668 239.035934,104.326691 239.035278,45.437714 
	C239.035233,41.948429 238.922485,38.459145 238.868362,34.708534 
	C238.592178,34.259056 238.309799,34.070908 238.016815,33.467590 
	C236.723389,22.286394 233.075943,12.800997 223.833878,6.197594 
	C221.726959,4.692210 219.936249,2.744257 218.000000,1.000001 
z"/>
<path fill="#E93227" opacity="1.000000" stroke="none" 
	d="
M234.030167,230.862854 
	C217.318298,230.912567 200.606445,230.962280 183.271088,230.765823 
	C182.397705,230.333878 182.132294,230.173798 181.851395,230.039383 
	C180.554688,228.992508 179.257996,227.945648 177.851349,226.319168 
	C177.595413,225.456390 177.394424,225.220016 177.138428,225.030411 
	C177.077835,214.045822 176.970200,203.061264 176.964935,192.076660 
	C176.944504,149.453705 176.956619,106.830742 176.956619,64.207787 
	C176.956619,62.391811 176.956619,60.575836 176.956619,58.402390 
	C167.012634,58.402390 157.307541,58.402390 147.012711,58.402390 
	C147.012711,114.335564 147.012711,170.220261 146.766403,226.728851 
	C146.334030,227.603470 146.174164,227.869934 146.040512,228.152115 
	C145.587967,228.721344 145.135422,229.290573 144.211868,230.059357 
	C143.456726,230.404709 143.219803,230.606079 143.030106,230.863037 
	C127.651619,230.912674 112.273140,230.962311 96.271355,230.765839 
	C95.398537,230.333817 95.133522,230.173538 94.852997,230.038910 
	C91.689461,230.406250 90.744568,228.706085 90.868645,225.306961 
	C90.595917,224.442841 90.393517,224.213379 90.138489,224.030319 
	C90.077744,212.712814 89.970253,201.395355 89.964600,190.077820 
	C89.943642,148.121078 89.956268,106.164345 89.956261,64.207611 
	C89.956261,62.391670 89.956253,60.575729 89.956253,58.402351 
	C80.012291,58.402351 70.307274,58.402351 60.012047,58.402351 
	C60.012047,114.002579 60.012047,169.554001 59.765808,225.728928 
	C59.333771,226.602371 59.173725,226.867828 59.039433,227.148819 
	C58.605511,228.034683 58.171589,228.920563 57.239189,230.032593 
	C56.456734,230.404572 56.219891,230.605850 56.030186,230.862579 
	C39.318352,230.912415 22.606518,230.962234 5.271219,230.765915 
	C4.397936,230.333725 4.132488,230.173615 3.851410,230.039413 
	C3.138348,230.037857 2.425287,230.036301 1.356112,230.017365 
	C1.000000,153.741592 1.000000,77.483177 1.000000,1.000000 
	C73.020737,1.000000 145.041718,1.000000 217.531342,1.000001 
	C219.936249,2.744257 221.726959,4.692210 223.833878,6.197594 
	C233.075943,12.800997 236.723389,22.286394 238.129929,33.668701 
	C238.404343,34.559624 238.607178,34.787914 238.862167,34.969860 
	C238.922485,38.459145 239.035233,41.948429 239.035278,45.437714 
	C239.035934,104.326691 239.022568,163.215668 238.765869,222.721649 
	C238.329620,223.578873 238.165756,223.835663 238.027893,224.109039 
	C237.283371,225.990265 236.538849,227.871490 235.267242,230.005859 
	C234.456238,230.404724 234.219574,230.606003 234.030167,230.862854 
z"/>
<path fill="#F9BA29" opacity="1.000000" stroke="none" 
	d="
M470.887939,231.039017 
	C469.583618,229.988602 468.279266,228.938171 466.978027,227.034698 
	C466.973877,151.741806 466.966644,77.301941 466.959412,2.862071 
	C466.965698,2.448216 466.971985,2.034360 466.989136,1.310253 
	C487.687561,1.000000 508.375122,1.000000 529.542725,1.310801 
	C530.028809,2.036201 530.034912,2.450802 530.029541,3.342555 
	C530.012146,27.436491 529.987976,51.053314 530.036926,74.669983 
	C530.040588,76.442650 530.566284,78.214241 530.981934,80.284225 
	C532.081482,81.438911 533.048401,82.295692 534.367310,83.364517 
	C535.534668,83.714539 536.349915,83.972031 537.165405,83.973022 
	C557.162964,83.997269 577.160645,84.009735 597.158081,83.959915 
	C598.434692,83.956734 599.710022,83.432831 601.283813,83.018600 
	C602.438110,81.919418 603.294617,80.952805 604.363342,79.634125 
	C604.716858,77.967171 604.980713,76.652359 604.981384,75.337418 
	C604.992859,51.179527 604.972778,27.021624 604.967285,2.553110 
	C604.983521,1.828332 604.991760,1.414166 605.000000,1.000001 
	C625.635681,1.000000 646.271301,1.000000 667.000000,1.000000 
	C667.000000,77.354202 667.000000,153.708450 667.000000,230.531342 
	C666.584656,231.007904 666.169373,231.015793 664.965454,231.021408 
	C646.410095,231.026306 628.643250,231.033478 610.876404,231.040649 
	C608.996216,230.291458 607.115967,229.542252 605.108276,227.991333 
	C604.986694,202.370438 605.017456,177.551208 604.949219,152.732224 
	C604.943970,150.832748 604.239380,148.935196 603.859863,147.036758 
	C603.087646,146.386475 602.315369,145.736176 600.907837,144.754807 
	C599.457214,144.285858 598.642090,144.028595 597.826721,144.027603 
	C577.831238,144.003479 557.835632,143.991089 537.840271,144.041000 
	C536.563782,144.044189 535.288635,144.567963 534.012817,144.849548 
	C533.049438,146.033966 532.085999,147.218384 530.772949,149.066040 
	C530.282471,151.043930 530.019531,152.358536 530.018921,153.673279 
	C530.007629,178.160187 530.027527,202.647110 530.040833,227.134033 
	C528.982788,228.423981 527.924683,229.713898 526.015442,231.010223 
	C507.072174,231.024094 488.980072,231.031555 470.887939,231.039017 
z"/>
<path fill="#1853A0" opacity="1.000000" stroke="none" 
	d="
M268.968414,2.849352 
	C268.968475,2.438214 268.968536,2.027076 268.984314,1.307969 
	C289.687561,1.000000 310.375122,1.000000 331.531342,1.000000 
	C332.012756,1.713294 332.025482,2.426589 332.143555,3.704889 
	C332.403076,4.550799 332.612549,4.781510 332.877319,4.962029 
	C332.936066,17.783962 333.038361,30.605869 333.045502,43.427830 
	C333.067627,83.236221 333.050934,123.044624 333.056183,162.853027 
	C333.057037,169.517593 333.485870,169.940643 340.165070,169.944763 
	C369.812988,169.963058 399.460907,169.974487 429.729889,170.233002 
	C430.595428,170.675598 430.860962,170.839478 431.147583,170.969238 
	C432.777130,172.350906 434.406708,173.732559 436.142883,175.690628 
	C436.403351,176.547775 436.611938,176.779175 436.875244,176.961243 
	C436.920898,193.010376 436.966553,209.059525 436.767487,225.727692 
	C436.323792,226.588165 436.158936,226.851044 436.028290,227.135345 
	C434.971710,228.100540 433.915131,229.065735 432.293213,230.139816 
	C431.449310,230.403366 431.219666,230.611908 431.038910,230.874298 
	C415.575714,230.934036 400.112549,231.038864 384.649323,231.044586 
	C347.396271,231.058350 310.143250,231.025696 272.265686,230.766708 
	C271.391846,230.325363 271.121918,230.163376 270.831390,230.035690 
	C270.273895,229.584991 269.716431,229.134277 268.953979,228.215912 
	C268.597595,227.462433 268.389862,227.226105 268.125793,227.039291 
	C268.067535,226.210785 267.958191,225.382278 267.958252,224.553772 
	C267.962616,151.332932 267.975403,78.112083 268.232422,4.269721 
	C268.675171,3.402931 268.838867,3.136649 268.968414,2.849352 
z"/>
<path fill="#000000" opacity="1.000000" stroke="none" 
	d="
M604.531372,1.000001 
	C604.991760,1.414166 604.983521,1.828332 604.593140,2.789401 
	C604.191040,28.886272 604.171082,54.436237 604.151123,79.986198 
	C603.294617,80.952805 602.438110,81.919418 600.819702,82.951828 
	C578.043640,83.062576 556.029480,83.107521 534.015320,83.152466 
	C533.048401,82.295692 532.081482,81.438911 531.048584,79.820160 
	C530.988403,55.174458 531.011658,31.290699 530.958862,7.407103 
	C530.955505,5.892532 530.360718,4.379270 530.041016,2.865400 
	C530.034912,2.450802 530.028809,2.036201 530.011353,1.310801 
	C554.687561,1.000000 579.375122,1.000000 604.531372,1.000001 
z"/>
<path fill="#242424" opacity="1.000000" stroke="none" 
	d="
M43.466118,281.000000 
	C42.998608,272.012115 42.907845,263.023102 43.021397,254.036652 
	C43.131149,245.350540 45.504566,243.053284 54.037582,243.000549 
	C59.197075,242.968658 64.359993,242.889633 69.515907,243.030914 
	C76.258461,243.215714 78.726868,245.782669 78.994377,252.549713 
	C79.033806,253.546906 79.129898,254.565323 78.985603,255.542282 
	C78.311661,260.105438 80.484283,261.589752 84.704826,261.007172 
	C85.358162,260.916992 86.041656,261.057343 86.699257,260.983978 
	C90.735626,260.533630 93.143318,261.897583 93.099319,266.373688 
	C93.091599,267.159241 93.823517,267.952057 95.355820,268.681030 
	C95.565895,267.192169 95.935036,265.705719 95.957428,264.214081 
	C96.037346,258.889038 96.028107,253.562073 95.996460,248.236176 
	C95.974403,244.523987 97.570770,242.946411 101.455772,242.924515 
	C110.611191,242.872925 111.125137,243.092545 110.968399,252.293579 
	C110.810204,261.580109 110.344826,270.861389 110.007019,280.572510 
	C94.979103,281.000000 79.958214,281.000000 64.466248,280.557373 
	C63.991119,278.958374 64.345596,277.632050 63.897282,276.686310 
	C63.257317,275.336243 62.029312,274.264923 61.052460,273.074554 
	C60.041061,274.229645 58.653534,275.237305 58.126274,276.582184 
	C57.620262,277.872925 58.006088,279.513275 58.000000,281.000000 
	C53.310745,281.000000 48.621487,281.000000 43.466118,281.000000 
z"/>
<path fill="#242424" opacity="1.000000" stroke="none" 
	d="
M205.468658,281.000000 
	C204.997955,270.692627 204.861191,260.382172 205.098633,250.080322 
	C205.151031,247.806564 206.212143,243.835861 207.355103,243.626282 
	C210.948914,242.967346 214.842758,243.497498 218.521866,244.135590 
	C219.242279,244.260529 219.890198,246.920044 219.937378,248.430389 
	C220.108582,253.911316 220.103546,259.402832 219.976028,264.885986 
	C219.907074,267.851318 221.006775,269.105133 224.043228,269.035583 
	C226.993988,268.967987 229.954071,269.307800 233.620361,269.507355 
	C233.745026,266.976501 233.942520,264.427307 233.979965,261.875732 
	C234.040955,257.720428 234.130951,253.558151 233.961975,249.408844 
	C233.777710,244.884338 235.265381,242.617798 240.275528,242.911469 
	C246.239960,243.261093 252.252258,242.774612 258.220184,243.093002 
	C260.895081,243.235703 265.524689,244.040619 265.776642,245.264008 
	C266.515930,248.853195 265.578705,252.811340 265.158600,256.609528 
	C264.674042,260.990082 262.023163,266.997223 263.936737,269.346802 
	C266.932495,273.025208 266.654053,276.372742 267.002014,280.559082 
	C246.645767,281.000000 226.291550,281.000000 205.468658,281.000000 
z"/>
<path fill="#242424" opacity="1.000000" stroke="none" 
	d="
M542.466125,281.000000 
	C541.996277,271.001831 541.880188,261.001740 542.051208,251.006561 
	C542.109131,247.619492 541.076599,242.994919 546.856628,243.036926 
	C554.330505,243.091217 557.106873,241.326660 557.134766,250.040649 
	C557.136108,250.445694 557.526794,250.849487 557.948914,251.664612 
	C563.288818,242.591949 570.774536,241.283890 580.029297,244.168732 
	C582.554688,244.955948 585.792236,243.427124 588.708496,242.998993 
	C593.866760,242.241684 594.991333,245.391663 594.995728,249.568298 
	C595.006470,259.733093 595.001953,269.897888 595.001831,280.531342 
	C590.310730,281.000000 585.621521,281.000000 580.463684,280.531342 
	C579.995117,270.045288 579.995117,260.027863 579.995117,250.010468 
	C579.573914,249.895615 579.152649,249.780777 578.731445,249.665924 
	C575.642700,253.556854 572.553955,257.447784 569.964050,260.710358 
	C573.145691,267.854523 576.072876,274.427246 579.000000,281.000000 
	C573.645081,281.000000 568.290100,281.000000 562.415405,280.648132 
	C560.710327,278.079559 559.525024,275.862854 558.339783,273.646149 
	C557.893188,273.839935 557.446594,274.033722 557.000000,274.227509 
	C557.000000,276.484985 557.000000,278.742493 557.000000,281.000000 
	C552.310730,281.000000 547.621521,281.000000 542.466125,281.000000 
z"/>
<path fill="#242424" opacity="1.000000" stroke="none" 
	d="
M1.000000,243.468658 
	C11.269406,242.998871 21.539284,242.937256 31.808056,243.017334 
	C38.978527,243.073242 40.926773,245.039627 40.987385,252.236053 
	C41.065506,261.510986 41.005180,270.787079 41.002243,280.531342 
	C27.741903,281.000000 14.483808,281.000000 1.000000,281.000000 
	C1.000000,268.646698 1.000000,256.291992 1.000000,243.468658 
z"/>
<path fill="#242424" opacity="1.000000" stroke="none" 
	d="
M150.468658,281.000000 
	C149.998886,270.695129 149.944962,260.389862 150.017151,250.085480 
	C150.058304,244.213943 151.291641,243.035126 157.007889,243.002579 
	C162.824982,242.969467 168.642395,242.990891 174.459671,242.994659 
	C183.137238,243.000275 185.673721,244.951614 185.826675,253.658768 
	C185.926376,259.334137 184.124725,265.029419 184.054489,270.726654 
	C184.015167,273.916077 185.769806,277.127625 186.858063,280.664612 
	C174.979111,281.000000 162.958206,281.000000 150.468658,281.000000 
z"/>
<path fill="#242424" opacity="1.000000" stroke="none" 
	d="
M470.464661,281.000000 
	C469.999023,271.358826 469.927765,261.716949 470.020111,252.076645 
	C470.089966,244.785919 471.969360,243.027100 479.302582,242.999832 
	C485.120422,242.978195 490.942291,242.871689 496.755341,243.041840 
	C503.140839,243.228760 504.964996,245.208313 504.994812,251.637848 
	C505.038788,261.112610 505.004303,270.587708 505.001587,280.531342 
	C500.310760,281.000000 495.621490,281.000000 490.464172,280.557373 
	C489.992096,278.958282 490.346649,277.631805 489.898224,276.686096 
	C489.258057,275.335876 488.029724,274.264557 487.052551,273.074127 
	C486.040924,274.229248 484.653046,275.236877 484.125732,276.581879 
	C483.619690,277.872620 484.005890,279.513184 484.000000,281.000000 
	C479.643097,281.000000 475.286194,281.000000 470.464661,281.000000 
z"/>
<path fill="#242424" opacity="1.000000" stroke="none" 
	d="
M269.464661,281.000000 
	C268.999268,271.363159 268.931671,261.725708 269.019562,252.089676 
	C269.085968,244.807693 270.978516,243.026520 278.284790,242.998734 
	C283.767700,242.977890 289.254974,242.868362 294.732727,243.039993 
	C301.445435,243.250336 303.960632,245.929367 303.994110,252.647583 
	C304.039581,261.785736 304.004608,270.924286 304.002075,280.531342 
	C299.310760,281.000000 294.621490,281.000000 289.464050,280.557373 
	C288.991760,278.958405 289.346222,277.632172 288.897888,276.686462 
	C288.257874,275.336365 287.029846,274.265015 286.052948,273.074615 
	C285.041901,274.229767 283.654968,275.237518 283.127686,276.582336 
	C282.621582,277.873169 283.006592,279.513336 283.000000,281.000000 
	C278.643097,281.000000 274.286194,281.000000 269.464661,281.000000 
z"/>
<path fill="#242424" opacity="1.000000" stroke="none" 
	d="
M114.468658,281.000000 
	C111.187073,270.052551 111.002243,259.139954 113.658455,248.073563 
	C114.522156,244.475220 116.737236,243.317078 119.553314,243.204086 
	C126.690102,242.917770 133.853287,242.862656 140.988968,243.144302 
	C144.914902,243.299255 147.792816,245.944092 147.809555,249.846039 
	C147.852890,259.948425 147.337418,270.053223 147.022522,280.578522 
	C136.312439,281.000000 125.624878,281.000000 114.468658,281.000000 
M128.741440,257.189758 
	C128.282532,260.695557 127.745857,264.197205 127.557022,267.717499 
	C127.545647,267.929688 130.306458,268.290527 131.777328,268.582184 
	C132.173569,265.769592 132.917892,262.941071 132.789978,260.152527 
	C132.740723,259.078979 130.707092,258.096436 128.741440,257.189758 
z"/>
<path fill="#242424" opacity="1.000000" stroke="none" 
	d="
M432.466125,281.000000 
	C431.998444,270.870178 431.854004,260.736908 432.098572,250.613037 
	C432.157745,248.165298 433.054382,243.983002 434.341522,243.656586 
	C437.868530,242.762115 441.830170,243.313263 445.563110,243.762680 
	C446.186584,243.837723 446.762115,246.239349 446.940613,247.620102 
	C447.194336,249.583084 446.720581,251.688828 447.228668,253.550446 
	C447.498810,254.540283 449.128754,255.634598 450.246338,255.757156 
	C451.045105,255.844757 452.343506,254.554749 452.810730,253.586075 
	C453.270813,252.632172 452.975098,251.308853 452.992920,250.147339 
	C453.095673,243.434525 453.505249,243.015274 460.014435,242.994217 
	C467.839050,242.968933 467.999329,243.120682 468.008545,251.167786 
	C468.019592,260.799408 468.007935,270.431061 468.003052,280.531342 
	C463.310760,281.000000 458.621490,281.000000 453.464752,280.540436 
	C452.986786,277.768219 453.295532,275.389465 452.835968,273.169800 
	C452.592926,271.995911 451.012634,271.098907 450.036041,270.076904 
	C449.036224,271.074890 447.368378,271.957611 447.172150,273.094299 
	C446.728821,275.662903 447.012207,278.356964 447.000000,281.000000 
	C442.310760,281.000000 437.621490,281.000000 432.466125,281.000000 
z"/>
<path fill="#242424" opacity="1.000000" stroke="none" 
	d="
M380.468658,281.000000 
	C379.998505,270.836365 379.954437,260.672455 380.010315,250.509125 
	C380.048035,243.647644 380.733185,243.005966 387.349945,242.995529 
	C393.181549,242.986343 399.013184,242.991409 404.844788,242.993744 
	C412.009399,242.996628 415.493683,247.032227 412.566101,253.567871 
	C410.877014,257.338562 410.887604,260.635437 410.924011,264.332367 
	C410.939789,265.936829 410.282043,267.547943 409.933075,269.142853 
	C415.093262,271.652954 412.298676,276.358551 413.003937,280.542847 
	C402.312439,281.000000 391.624878,281.000000 380.468658,281.000000 
z"/>
<path fill="#242424" opacity="1.000000" stroke="none" 
	d="
M306.468658,281.000000 
	C305.998169,271.694366 305.972351,262.388641 306.002380,253.083130 
	C306.025208,246.008728 308.814636,243.135544 315.926178,243.020248 
	C322.239288,242.917892 328.556915,243.081451 334.869415,242.961960 
	C337.801086,242.906479 338.933472,243.947647 339.064178,246.992432 
	C339.520020,257.612549 339.245453,257.994629 328.199646,258.005829 
	C321.030762,258.013062 319.584167,259.651093 321.153229,266.406799 
	C321.375458,267.363586 322.728088,268.057800 323.557495,268.873566 
	C324.355896,268.024231 325.471436,267.305969 325.887878,266.298706 
	C326.803497,264.084137 326.878937,260.126038 328.167084,259.733490 
	C331.517242,258.712524 335.357666,258.995667 338.952057,259.319092 
	C339.741669,259.390167 340.855682,261.767670 340.905731,263.117004 
	C341.115112,268.758728 340.976166,274.413391 340.982452,280.531647 
	C329.645782,281.000000 318.291534,281.000000 306.468658,281.000000 
z"/>
<path fill="#242424" opacity="1.000000" stroke="none" 
	d="
M597.466125,281.000000 
	C596.997925,270.364075 597.149048,259.724854 596.920288,249.093826 
	C596.825256,244.677719 598.079285,242.689667 602.830566,242.915665 
	C609.463013,243.231140 616.122437,242.934906 622.768982,243.012650 
	C630.147034,243.098923 631.975403,244.935318 631.998596,252.143402 
	C632.028564,261.449738 632.004578,270.756256 632.001892,280.531342 
	C627.310730,281.000000 622.621521,281.000000 617.464050,280.531372 
	C616.993530,273.759064 617.133606,267.449585 616.877136,261.156250 
	C616.821167,259.782471 615.348816,258.466431 614.528809,257.123779 
	C613.689697,258.447052 612.177734,259.744415 612.125549,261.098053 
	C611.870239,267.723785 612.003845,274.364563 612.000000,281.000000 
	C607.310730,281.000000 602.621521,281.000000 597.466125,281.000000 
z"/>
<path fill="#242424" opacity="1.000000" stroke="none" 
	d="
M343.468658,281.000000 
	C342.998108,270.357727 343.153198,259.712036 342.919403,249.074875 
	C342.821716,244.631119 344.127045,242.796371 348.850830,242.901138 
	C357.734070,243.098129 357.991364,243.118561 358.011719,252.172150 
	C358.021790,256.661926 357.843170,261.164673 358.159698,265.632538 
	C358.241333,266.785126 359.871338,267.828064 360.790070,268.921356 
	C361.851440,267.802673 363.770416,266.728119 363.830627,265.557922 
	C364.146362,259.421051 364.079315,253.258255 363.962158,247.107971 
	C363.905853,244.151413 364.975525,242.928207 368.021515,242.961151 
	C380.074127,243.091522 377.849060,242.075821 377.979431,252.625946 
	C378.092407,261.770233 377.978424,270.917328 377.982361,280.531586 
	C366.645782,281.000000 355.291534,281.000000 343.468658,281.000000 
z"/>
<path fill="#242424" opacity="1.000000" stroke="none" 
	d="
M635.468628,281.000000 
	C634.671997,271.259918 634.103638,261.519867 634.103577,251.779800 
	C634.103516,245.672821 636.901733,243.197342 643.191345,243.048492 
	C650.811340,242.868164 658.438599,242.997894 666.531372,242.996735 
	C667.000000,247.356903 667.000000,251.713806 666.531860,256.538147 
	C661.568787,257.010498 657.048706,256.754578 652.594604,257.183685 
	C651.306274,257.307800 649.749573,259.207733 649.151306,260.642090 
	C648.560059,262.059479 648.610413,264.069641 649.149231,265.537048 
	C649.636414,266.863739 651.163330,267.808624 652.231750,268.921875 
	C653.144287,267.820679 654.692139,266.809784 654.863708,265.603241 
	C655.801025,259.011902 655.684692,258.994904 662.505005,258.993835 
	C664.003357,258.993591 665.501648,258.997833 667.000000,259.000000 
	C667.000000,266.273376 667.000000,273.546783 667.000000,281.000000 
	C656.646301,281.000000 646.291809,281.000000 635.468628,281.000000 
z"/>
<path fill="#242424" opacity="1.000000" stroke="none" 
	d="
M508.468658,281.000000 
	C507.664612,272.052734 507.110229,263.106812 507.055298,254.157806 
	C507.000031,245.155930 509.397919,243.002045 518.317749,242.994690 
	C523.808228,242.990173 529.302612,243.123322 534.787842,242.953934 
	C538.453308,242.840744 539.978333,244.523346 539.987122,247.982254 
	C539.990967,249.479599 539.934998,250.979843 540.008850,252.473694 
	C540.163635,255.602997 538.795837,257.098846 535.591492,257.014893 
	C532.266479,256.927765 528.936279,257.062866 525.609741,257.009399 
	C520.838440,256.932739 522.096252,260.491913 522.062256,263.050171 
	C522.027588,265.659729 520.979980,269.176697 525.708374,268.988708 
	C526.704895,268.949097 527.704651,268.991211 528.702881,268.993469 
	C539.624207,269.018250 540.010010,269.397217 540.002319,280.550018 
	C529.645752,281.000000 519.291565,281.000000 508.468658,281.000000 
z"/>
<path fill="#000000" opacity="1.000000" stroke="none" 
	d="
M579.250000,281.000000 
	C576.072876,274.427246 573.145691,267.854523 569.964050,260.710358 
	C572.553955,257.447784 575.642700,253.556854 578.731445,249.665924 
	C579.152649,249.780777 579.573914,249.895615 579.995117,250.010468 
	C579.995117,260.027863 579.995117,270.045288 579.997559,280.531342 
	C580.000000,281.000000 579.500000,281.000000 579.250000,281.000000 
z"/>
<path fill="#000000" opacity="1.000000" stroke="none" 
	d="
M612.416626,281.000000 
	C612.003845,274.364563 611.870239,267.723785 612.125549,261.098053 
	C612.177734,259.744415 613.689697,258.447052 614.528809,257.123779 
	C615.348816,258.466431 616.821167,259.782471 616.877136,261.156250 
	C617.133606,267.449585 616.993530,273.759064 616.997925,280.531372 
	C615.611084,281.000000 614.222229,281.000000 612.416626,281.000000 
z"/>
<path fill="#000000" opacity="1.000000" stroke="none" 
	d="
M667.000000,258.666687 
	C665.501648,258.997833 664.003357,258.993591 662.505005,258.993835 
	C655.684692,258.994904 655.801025,259.011902 654.863708,265.603241 
	C654.692139,266.809784 653.144287,267.820679 652.231750,268.921875 
	C651.163330,267.808624 649.636414,266.863739 649.149231,265.537048 
	C648.610413,264.069641 648.560059,262.059479 649.151306,260.642090 
	C649.749573,259.207733 651.306274,257.307800 652.594604,257.183685 
	C657.048706,256.754578 661.568787,257.010498 666.531860,257.002808 
	C667.000000,257.444458 667.000000,257.888885 667.000000,258.666687 
z"/>
<path fill="#000000" opacity="1.000000" stroke="none" 
	d="
M447.428467,281.000000 
	C447.012207,278.356964 446.728821,275.662903 447.172150,273.094299 
	C447.368378,271.957611 449.036224,271.074890 450.036041,270.076904 
	C451.012634,271.098907 452.592926,271.995911 452.835968,273.169800 
	C453.295532,275.389465 452.986786,277.768219 452.998627,280.540436 
	C451.285645,281.000000 449.571289,281.000000 447.428467,281.000000 
z"/>
<path fill="#000000" opacity="1.000000" stroke="none" 
	d="
M484.428467,281.000000 
	C484.005890,279.513184 483.619690,277.872620 484.125732,276.581879 
	C484.653046,275.236877 486.040924,274.229248 487.052551,273.074127 
	C488.029724,274.264557 489.258057,275.335876 489.898224,276.686096 
	C490.346649,277.631805 489.992096,278.958282 489.998047,280.557373 
	C488.285645,281.000000 486.571289,281.000000 484.428467,281.000000 
z"/>
<path fill="#000000" opacity="1.000000" stroke="none" 
	d="
M283.428467,281.000000 
	C283.006592,279.513336 282.621582,277.873169 283.127686,276.582336 
	C283.654968,275.237518 285.041901,274.229767 286.052948,273.074615 
	C287.029846,274.265015 288.257874,275.336365 288.897888,276.686462 
	C289.346222,277.632172 288.991760,278.958405 288.997925,280.557373 
	C287.285645,281.000000 285.571289,281.000000 283.428467,281.000000 
z"/>
<path fill="#000000" opacity="1.000000" stroke="none" 
	d="
M58.428463,281.000000 
	C58.006088,279.513275 57.620262,277.872925 58.126274,276.582184 
	C58.653534,275.237305 60.041061,274.229645 61.052460,273.074554 
	C62.029312,274.264923 63.257317,275.336243 63.897282,276.686310 
	C64.345596,277.632050 63.991119,278.958374 63.997589,280.557373 
	C62.285641,281.000000 60.571285,281.000000 58.428463,281.000000 
z"/>
<path fill="#000000" opacity="1.000000" stroke="none" 
	d="
M557.416626,281.000000 
	C557.000000,278.742493 557.000000,276.484985 557.000000,274.227509 
	C557.446594,274.033722 557.893188,273.839935 558.339783,273.646149 
	C559.525024,275.862854 560.710327,278.079559 561.947754,280.648132 
	C560.611084,281.000000 559.222229,281.000000 557.416626,281.000000 
z"/>
<path fill="#FFD12E" opacity="1.000000" stroke="none" 
	d="
M466.585449,3.098672 
	C466.966644,77.301941 466.973877,151.741806 466.970459,226.659149 
	C466.639832,225.948517 466.040466,224.760590 466.039795,223.572327 
	C465.998352,150.652603 466.005493,77.732857 466.017303,4.813113 
	C466.017365,4.320489 466.143951,3.827886 466.585449,3.098672 
z"/>
<path fill="#FFD12E" opacity="1.000000" stroke="none" 
	d="
M603.923096,147.499420 
	C604.239380,148.935196 604.943970,150.832748 604.949219,152.732224 
	C605.017456,177.551208 604.986694,202.370438 604.970337,227.667847 
	C604.640015,226.464615 604.045776,224.783875 604.041443,223.101624 
	C603.977234,198.055237 603.991028,173.008636 603.923096,147.499420 
z"/>
<path fill="#FFD02E" opacity="1.000000" stroke="none" 
	d="
M530.415405,226.898712 
	C530.027527,202.647110 530.007629,178.160187 530.018921,153.673279 
	C530.019531,152.358536 530.282471,151.043930 530.635620,149.378418 
	C530.828674,174.906189 530.809387,200.784805 530.415405,226.898712 
z"/>
<path fill="#FFD12E" opacity="1.000000" stroke="none" 
	d="
M534.476929,144.915985 
	C535.288635,144.567963 536.563782,144.044189 537.840271,144.041000 
	C557.835632,143.991089 577.831238,144.003479 597.826721,144.027603 
	C598.642090,144.028595 599.457214,144.285858 600.623291,144.636383 
	C578.963074,144.893524 556.952026,144.937973 534.476929,144.915985 
z"/>
<path fill="#FFD12E" opacity="1.000000" stroke="none" 
	d="
M471.116577,231.416504 
	C488.980072,231.031555 507.072174,231.024094 525.640137,231.027924 
	C525.434326,231.357574 524.752441,231.954193 524.071106,231.953598 
	C506.495789,231.938278 488.920502,231.860733 471.116577,231.416504 
z"/>
<path fill="#FFD12E" opacity="1.000000" stroke="none" 
	d="
M611.108887,231.416351 
	C628.643250,231.033478 646.410095,231.026306 664.654053,231.029541 
	C664.446960,231.357986 663.762573,231.953995 663.078735,231.953369 
	C645.832886,231.937698 628.587158,231.859360 611.108887,231.416351 
z"/>
<path fill="#1B5DB4" opacity="1.000000" stroke="none" 
	d="
M436.261902,227.031830 
	C436.158936,226.851044 436.323792,226.588165 436.699524,226.194717 
	C436.749329,226.337936 436.622437,226.633133 436.261902,227.031830 
z"/>
<path fill="#1B5DB4" opacity="1.000000" stroke="none" 
	d="
M268.736603,2.958604 
	C268.838867,3.136649 268.675171,3.402931 268.300446,3.802670 
	C268.250671,3.660711 268.377747,3.364283 268.736603,2.958604 
z"/>
<path fill="#1B5DB4" opacity="1.000000" stroke="none" 
	d="
M332.861511,4.704722 
	C332.612549,4.781510 332.403076,4.550799 332.138580,4.061671 
	C332.300751,4.051436 332.573242,4.249426 332.861511,4.704722 
z"/>
<path fill="#FF372A" opacity="1.000000" stroke="none" 
	d="
M238.868362,34.708534 
	C238.607178,34.787914 238.404343,34.559624 238.140533,34.083870 
	C238.309799,34.070908 238.592178,34.259056 238.868362,34.708534 
z"/>
<path fill="#1B5DB4" opacity="1.000000" stroke="none" 
	d="
M431.039520,170.737045 
	C430.860962,170.839478 430.595428,170.675598 430.196960,170.300903 
	C430.339142,170.251083 430.635315,170.377960 431.039520,170.737045 
z"/>
<path fill="#1B5DB4" opacity="1.000000" stroke="none" 
	d="
M436.858093,176.704865 
	C436.611938,176.779175 436.403351,176.547775 436.139099,176.058899 
	C436.299469,176.050003 436.570190,176.249237 436.858093,176.704865 
z"/>
<path fill="#FF372A" opacity="1.000000" stroke="none" 
	d="
M238.272461,224.021362 
	C238.165756,223.835663 238.329620,223.578873 238.690826,223.187286 
	C238.747131,223.335175 238.632080,223.634415 238.272461,224.021362 
z"/>
<path fill="#FF382B" opacity="1.000000" stroke="none" 
	d="
M90.132339,224.291656 
	C90.393517,224.213379 90.595917,224.442841 90.858475,224.920563 
	C90.689560,224.932602 90.407875,224.742798 90.132339,224.291656 
z"/>
<path fill="#FF372B" opacity="1.000000" stroke="none" 
	d="
M177.132675,225.292725 
	C177.394424,225.220016 177.595413,225.456390 177.852142,225.946289 
	C177.684219,225.953705 177.405563,225.754364 177.132675,225.292725 
z"/>
<path fill="#FF382B" opacity="1.000000" stroke="none" 
	d="
M59.278152,227.044312 
	C59.173725,226.867828 59.333771,226.602371 59.690414,226.194565 
	C59.746464,226.337738 59.631668,226.638763 59.278152,227.044312 
z"/>
<path fill="#1B5DB4" opacity="1.000000" stroke="none" 
	d="
M431.294647,230.857056 
	C431.219666,230.611908 431.449310,230.403366 431.934509,230.137680 
	C431.944183,230.297729 431.747284,230.568787 431.294647,230.857056 
z"/>
<path fill="#FF382B" opacity="1.000000" stroke="none" 
	d="
M146.279266,228.046631 
	C146.174164,227.869934 146.334030,227.603470 146.691437,227.194534 
	C146.747879,227.337936 146.632950,227.639542 146.279266,228.046631 
z"/>
<path fill="#1B5DB4" opacity="1.000000" stroke="none" 
	d="
M268.143707,227.296494 
	C268.389862,227.226105 268.597595,227.462433 268.857910,227.959869 
	C268.698425,227.965546 268.430023,227.759613 268.143707,227.296494 
z"/>
<path fill="#FF372B" opacity="1.000000" stroke="none" 
	d="
M3.955716,230.278305 
	C4.132488,230.173615 4.397936,230.333725 4.805561,230.690674 
	C4.662252,230.746811 4.361137,230.632004 3.955716,230.278305 
z"/>
<path fill="#FF372B" opacity="1.000000" stroke="none" 
	d="
M56.292786,230.868286 
	C56.219891,230.605850 56.456734,230.404572 56.948078,230.148300 
	C56.955421,230.316574 56.755402,230.595291 56.292786,230.868286 
z"/>
<path fill="#FF372B" opacity="1.000000" stroke="none" 
	d="
M94.956741,230.277924 
	C95.133522,230.173538 95.398537,230.333817 95.805710,230.690491 
	C95.662407,230.746475 95.361450,230.631714 94.956741,230.277924 
z"/>
<path fill="#FF372B" opacity="1.000000" stroke="none" 
	d="
M143.292816,230.868744 
	C143.219803,230.606079 143.456726,230.404709 143.948334,230.148407 
	C143.955704,230.316742 143.755615,230.595596 143.292816,230.868744 
z"/>
<path fill="#FF382B" opacity="1.000000" stroke="none" 
	d="
M181.955780,230.278168 
	C182.132294,230.173798 182.397705,230.333878 182.805450,230.690491 
	C182.662247,230.746552 182.361221,230.631760 181.955780,230.278168 
z"/>
<path fill="#FF382B" opacity="1.000000" stroke="none" 
	d="
M234.292786,230.868530 
	C234.219574,230.606003 234.456238,230.404724 234.947174,230.148132 
	C234.954605,230.316238 234.755005,230.595230 234.292786,230.868530 
z"/>
<path fill="#1B5DB4" opacity="1.000000" stroke="none" 
	d="
M270.947968,230.264282 
	C271.121918,230.163376 271.391846,230.325363 271.798676,230.697998 
	C271.658966,230.747177 271.361755,230.620026 270.947968,230.264282 
z"/>
<path fill="#FFD12E" opacity="1.000000" stroke="none" 
	d="
M604.363342,79.634125 
	C604.171082,54.436237 604.191040,28.886272 604.585205,3.100014 
	C604.972778,27.021624 604.992859,51.179527 604.981384,75.337418 
	C604.980713,76.652359 604.716858,77.967171 604.363342,79.634125 
z"/>
<path fill="#FFD02E" opacity="1.000000" stroke="none" 
	d="
M530.029541,3.342553 
	C530.360718,4.379270 530.955505,5.892532 530.958862,7.407103 
	C531.011658,31.290699 530.988403,55.174458 530.915955,79.522255 
	C530.566284,78.214241 530.040588,76.442650 530.036926,74.669983 
	C529.987976,51.053314 530.012146,27.436491 530.029541,3.342553 
z"/>
<path fill="#FFD12E" opacity="1.000000" stroke="none" 
	d="
M534.367310,83.364510 
	C556.029480,83.107521 578.043640,83.062576 600.521851,83.084396 
	C599.710022,83.432831 598.434692,83.956734 597.158081,83.959915 
	C577.160645,84.009735 557.162964,83.997269 537.165405,83.973022 
	C536.349915,83.972031 535.534668,83.714539 534.367310,83.364510 
z"/>
<path fill="#000000" opacity="1.000000" stroke="none" 
	d="
M129.159515,257.131104 
	C130.707092,258.096436 132.740723,259.078979 132.789978,260.152527 
	C132.917892,262.941071 132.173569,265.769592 131.777328,268.582184 
	C130.306458,268.290527 127.545647,267.929688 127.557022,267.717499 
	C127.745857,264.197205 128.282532,260.695557 129.159515,257.131104 
z"/>
</svg>