<svg version="1.1" id="Layer_1" xmlns="http://www.w3.org/2000/svg" xmlns:xlink="http://www.w3.org/1999/xlink" x="0px" y="0px"
	 width="100%" viewBox="0 0 200 200" enable-background="new 0 0 200 200" xml:space="preserve">
<path fill="#FAF9F9" opacity="1.000000" stroke="none" 
	d="
M87.000000,201.000000 
	C58.000000,201.000000 29.500004,201.000000 1.000004,201.000000 
	C1.000003,134.333344 1.000003,67.666679 1.000001,1.000013 
	C67.666656,1.000009 134.333313,1.000009 200.999969,1.000004 
	C200.999985,67.666649 200.999985,134.333298 201.000000,200.999969 
	C163.166672,201.000000 125.333336,201.000000 87.000000,201.000000 
M40.955753,80.991508 
	C40.955753,80.991508 41.108501,80.967178 40.954285,81.897774 
	C40.939247,95.262352 40.924213,108.626923 40.294041,122.060738 
	C39.719303,122.781815 36.237724,122.325714 39.282501,124.495972 
	C40.062302,125.051804 41.092346,125.816917 41.872589,125.685478 
	C43.166004,125.467575 44.294777,124.300186 45.590263,124.061760 
	C50.026035,123.245377 54.504162,122.659103 59.646008,121.996162 
	C60.098438,121.997643 60.550865,121.999123 61.383282,122.495125 
	C61.974274,122.635536 62.565266,122.775948 64.063614,122.962318 
	C67.213409,122.976608 70.365471,122.921661 73.512344,123.024857 
	C76.594261,123.125923 77.299438,121.622925 76.718681,118.121773 
	C76.659317,116.428772 76.599953,114.735779 76.792511,112.131020 
	C76.815773,100.359795 76.992989,88.585098 76.727806,76.820374 
	C76.676926,74.563087 74.886757,72.345001 73.716530,69.400764 
	C71.172729,68.280464 68.648941,66.247284 66.081825,66.191025 
	C51.617439,65.874054 37.140865,66.155304 22.672571,65.946716 
	C18.791670,65.890770 17.910957,67.307678 17.958998,70.896049 
	C18.132666,83.867798 18.018808,96.843369 18.017893,109.817497 
	C18.016924,123.564026 18.019114,123.564026 32.505295,122.636162 
	C33.000290,120.828011 33.905079,119.024178 33.924229,117.211006 
	C34.055103,104.817276 34.000019,92.421585 34.820637,79.867699 
	C35.907452,79.721046 36.994267,79.574402 38.707001,79.666351 
	C39.137741,79.778969 39.568481,79.891586 40.157589,80.431671 
	C40.318771,80.699257 40.537411,80.906120 40.955753,80.991508 
M151.569168,134.303741 
	C150.153107,133.535904 148.737045,132.768066 147.320999,132.000229 
	C148.695862,130.648468 150.070724,129.296692 152.240295,127.163559 
	C149.623596,127.364540 146.367493,126.918732 145.974670,127.779541 
	C144.932526,130.063278 145.127090,132.911377 144.703186,136.650696 
	C147.881653,135.894745 149.929489,135.407684 152.877960,134.593826 
	C154.094299,134.651428 155.310638,134.709045 156.526978,134.766663 
	C156.610321,134.338974 156.693665,133.911270 156.777008,133.483582 
	C158.043854,134.412384 159.310699,135.341187 160.193680,135.988571 
	C160.193680,133.428329 160.193680,131.224609 160.823181,128.948807 
	C162.137558,128.796967 163.451920,128.645126 164.766296,128.493286 
	C164.696762,127.902290 164.627243,127.311302 164.557709,126.720306 
	C163.022171,127.199158 161.486618,127.678017 159.229538,128.103928 
	C158.296188,128.691116 157.362854,129.278305 156.460815,129.845795 
	C155.958618,128.909988 155.456909,127.975098 154.955215,127.040215 
	C154.553802,127.122620 154.152390,127.205025 153.750977,127.287430 
	C153.750977,129.044785 153.950409,130.834518 153.672363,132.546722 
	C153.518188,133.496124 152.566055,134.315948 151.569168,134.303741 
M88.328201,66.045982 
	C87.385147,66.734856 86.442093,67.423737 85.304840,69.015007 
	C85.337677,85.645264 85.370514,102.275513 85.158783,119.715469 
	C84.786171,122.938736 86.854576,123.092987 89.234947,123.082565 
	C98.843071,123.040482 108.451492,123.064323 118.059799,123.063889 
	C120.634003,123.063774 123.208206,123.063873 126.152641,123.063873 
	C126.152641,119.065102 125.975967,115.925720 126.201813,112.815567 
	C126.432663,109.636490 125.012718,108.878181 122.119492,108.892159 
	C114.839264,108.927345 107.557793,108.706253 100.210487,107.709702 
	C100.210487,93.989494 100.210487,80.269279 100.210487,66.227051 
	C95.939644,66.227051 92.489357,66.227051 88.328201,66.045982 
M47.466091,127.476707 
	C47.156456,130.143356 46.846821,132.809998 46.521088,135.615265 
	C49.403343,135.615265 51.564026,135.615265 53.668770,135.615265 
	C54.578999,127.487183 54.578999,127.487183 48.959934,126.439232 
	C48.789371,126.198715 48.618805,125.958199 48.448235,125.717682 
	C48.300915,126.147766 48.153599,126.577850 47.466091,127.476707 
M58.568031,125.437996 
	C57.741455,126.043564 56.914879,126.649132 56.001438,128.122696 
	C56.001438,130.755341 56.001438,133.387985 56.001438,136.020615 
	C56.389709,136.066925 56.777985,136.113220 57.166256,136.159531 
	C57.813290,135.382721 58.460320,134.605911 59.100071,133.837845 
	C60.300983,134.669724 61.397438,135.429245 62.675739,136.314743 
	C63.642567,126.674484 63.642567,126.674484 58.568031,125.437996 
M177.372162,66.121414 
	C168.266907,66.425194 169.166611,64.465118 169.022263,74.303238 
	C169.002716,75.635422 169.061844,76.969177 169.026184,78.300636 
	C168.750641,88.585602 170.585739,87.161324 159.925079,87.185127 
	C148.925079,87.209686 149.933731,88.853493 149.784882,77.019203 
	C149.630417,64.737991 151.843216,66.236824 138.463043,66.075111 
	C135.196487,66.035622 134.428497,67.695122 134.450897,70.374680 
	C134.582993,86.172897 134.712173,101.971169 134.882416,117.768990 
	C134.901230,119.513908 135.174362,121.256081 135.334000,123.049599 
	C139.254944,123.049599 142.573288,122.950287 145.882782,123.078720 
	C148.931717,123.197044 149.986191,121.877869 149.871475,118.892036 
	C149.698929,114.402016 149.631454,109.883217 149.982361,105.412994 
	C150.086945,104.080589 151.668976,101.848511 152.698364,101.775253 
	C157.934906,101.402618 163.212234,101.603378 169.033096,101.603378 
	C169.033096,105.776314 169.038834,109.235764 169.032043,112.695198 
	C169.011047,123.387001 169.007629,123.289650 179.676147,123.118423 
	C182.912018,123.066483 184.264511,122.566254 184.194626,118.684288 
	C183.918869,103.367172 184.007065,88.038742 184.253937,72.719246 
	C184.356384,66.362610 184.544937,66.203903 177.372162,66.121414 
M23.969479,134.472610 
	C24.034567,133.122116 24.099653,131.771606 24.164742,130.421112 
	C24.370323,130.421768 24.575905,130.422440 24.781485,130.423096 
	C25.031403,132.320389 25.281319,134.217697 25.531237,136.114990 
	C26.167610,136.064758 26.803982,136.014526 27.440355,135.964294 
	C27.275801,133.273743 28.114346,129.497269 26.684502,128.176453 
	C25.019249,126.638199 21.369207,127.248604 18.324331,126.897026 
	C18.201756,129.063324 18.069746,130.351898 18.071798,131.640244 
	C18.074060,133.060242 18.199427,134.480011 18.296047,136.392258 
	C20.484903,135.988892 22.192787,135.674164 23.969479,134.472610 
M31.741316,127.030624 
	C27.079798,128.474258 29.837376,132.231384 29.321945,134.956238 
	C29.264515,135.259842 29.830791,135.681427 30.319641,136.328796 
	C31.393223,135.311554 32.322914,134.430649 33.176151,133.622192 
	C34.258533,134.637512 35.104515,135.431091 36.152576,136.414215 
	C38.005123,128.938004 37.452209,127.612061 31.741316,127.030624 
M85.469185,130.756851 
	C85.581352,132.523041 85.693520,134.289215 85.805687,136.055405 
	C86.204521,136.069199 86.603348,136.082993 87.002174,136.096802 
	C87.692055,135.200516 88.381935,134.304245 89.106163,133.363358 
	C90.355103,134.481766 91.306549,135.333771 93.060822,136.904694 
	C93.060822,134.256897 93.380402,132.569061 92.969261,131.083450 
	C92.572983,129.651581 91.647430,127.591087 90.553398,127.296600 
	C88.570496,126.762856 85.675774,126.220802 85.469185,130.756851 
M143.049255,128.928314 
	C141.028229,128.398727 139.007217,127.869141 136.986191,127.339546 
	C136.473419,130.143051 135.960663,132.946564 135.447891,135.750076 
	C135.917526,135.882095 136.387146,136.014114 136.856781,136.146118 
	C137.635620,135.161346 138.414474,134.176559 139.432251,132.889679 
	C140.467651,134.191360 141.262314,135.190399 142.056976,136.189423 
	C142.405441,136.124313 142.753906,136.059204 143.102371,135.994080 
	C143.102371,133.932617 143.102371,131.871140 143.049255,128.928314 
M117.898491,136.112228 
	C118.622269,135.876968 119.346046,135.641708 120.069817,135.406433 
	C119.179459,134.655594 118.289101,133.904739 117.964813,133.631271 
	C118.776123,131.461517 119.497597,129.532013 120.277061,127.447403 
	C117.672089,127.447403 115.630516,127.447403 111.931610,127.447403 
	C115.505630,130.281143 109.225685,136.165756 117.898491,136.112228 
M167.266373,134.964172 
	C168.131409,134.672577 169.552063,134.586990 169.751663,134.048660 
	C170.243576,132.721909 170.174835,131.187256 170.331512,129.736206 
	C170.740631,129.740967 171.149750,129.745728 171.558868,129.750504 
	C172.145508,131.916122 172.732162,134.081741 173.318817,136.247360 
	C173.921188,136.128113 174.523575,136.008881 175.125961,135.889648 
	C174.810501,133.151459 175.135788,130.061142 173.906891,127.824913 
	C173.300308,126.721046 169.824829,127.193733 167.131744,126.896065 
	C167.131744,129.864883 167.131744,131.985855 167.266373,134.964172 
M128.153015,127.398651 
	C125.549599,129.139267 125.284691,132.088379 127.558151,136.395477 
	C128.457611,135.099106 129.249359,133.957993 130.133621,132.683548 
	C131.180283,134.120438 131.974930,135.211365 133.473602,137.268799 
	C133.473602,132.930191 133.473602,130.047821 133.473602,125.918877 
	C131.750519,128.096024 130.863770,129.216431 129.632217,130.772507 
	C129.184509,129.458710 128.935471,128.727936 128.153015,127.398651 
M94.883835,130.862671 
	C94.883835,132.465912 94.883835,134.069153 94.883835,135.842712 
	C97.559662,135.842712 99.651917,135.842712 102.263504,135.842712 
	C101.893608,132.856812 101.562126,130.180969 101.228134,127.484901 
	C96.039467,126.922058 96.039467,126.922058 94.883835,130.862671 
M109.236015,136.082687 
	C112.381920,134.029724 112.697144,130.521347 109.677948,126.879967 
	C109.214211,129.465790 108.807350,131.734451 108.400490,134.003098 
	C107.910629,133.972778 107.420776,133.942444 106.930916,133.912109 
	C106.529816,131.631882 106.128716,129.351639 105.534645,125.974373 
	C102.579338,133.292847 103.489151,135.714294 109.236015,136.082687 
M76.857971,132.482513 
	C77.412247,136.693298 79.068039,137.263458 84.064529,134.603317 
	C82.529861,134.164093 81.319084,133.817566 80.862587,133.686905 
	C81.789017,131.512344 82.568436,129.682846 83.525391,127.436630 
	C81.348961,127.436630 79.334106,127.436630 76.904617,127.436630 
	C76.904617,128.960419 76.904617,130.264893 76.857971,132.482513 
M178.520477,127.217995 
	C177.779007,129.995987 177.037521,132.773972 176.222458,135.827667 
	C179.662079,135.827667 181.600433,135.827667 184.044586,135.827667 
	C183.929169,134.090424 183.833878,132.656113 183.689301,130.479965 
	C182.567841,132.667679 181.895645,133.978973 181.223450,135.290268 
	C180.595230,134.773972 179.967026,134.257660 179.338806,133.741364 
	C179.338806,132.400421 179.338806,131.059479 179.338806,129.872711 
	C180.901306,129.452667 182.279404,129.082199 183.657516,128.711731 
	C183.602631,128.290802 183.547760,127.869888 183.492889,127.448967 
	C182.116623,127.344009 180.740341,127.239052 178.520477,127.217995 
M163.469498,135.608673 
	C163.469498,135.608673 163.379517,135.476379 163.469498,135.608673 
z"/>
<path fill="#F5BB35" opacity="1.000000" stroke="none" 
	d="
M177.829453,66.129883 
	C184.544937,66.203903 184.356384,66.362610 184.253937,72.719246 
	C184.007065,88.038742 183.918869,103.367172 184.194626,118.684288 
	C184.264511,122.566254 182.912018,123.066483 179.676147,123.118423 
	C169.007629,123.289650 169.011047,123.387001 169.032043,112.695198 
	C169.038834,109.235764 169.033096,105.776314 169.033096,101.603378 
	C163.212234,101.603378 157.934906,101.402618 152.698364,101.775253 
	C151.668976,101.848511 150.086945,104.080589 149.982361,105.412994 
	C149.631454,109.883217 149.698929,114.402016 149.871475,118.892036 
	C149.986191,121.877869 148.931717,123.197044 145.882782,123.078720 
	C142.573288,122.950287 139.254944,123.049599 135.334000,123.049599 
	C135.174362,121.256081 134.901230,119.513908 134.882416,117.768990 
	C134.712173,101.971169 134.582993,86.172897 134.450897,70.374680 
	C134.428497,67.695122 135.196487,66.035622 138.463043,66.075111 
	C151.843216,66.236824 149.630417,64.737991 149.784882,77.019203 
	C149.933731,88.853493 148.925079,87.209686 159.925079,87.185127 
	C170.585739,87.161324 168.750641,88.585602 169.026184,78.300636 
	C169.061844,76.969177 169.002716,75.635422 169.022263,74.303238 
	C169.166611,64.465118 168.266907,66.425194 177.829453,66.129883 
z"/>
<path fill="#E3372A" opacity="1.000000" stroke="none" 
	d="
M39.999226,80.004196 
	C39.568481,79.891586 39.137741,79.778969 38.237324,79.232948 
	C35.841698,78.535347 33.915749,78.271149 32.180679,77.669456 
	C35.045025,76.627869 37.718491,75.923775 40.391960,75.219681 
	C40.383778,74.984367 40.375595,74.749054 40.367409,74.513741 
	C38.094234,74.140404 35.821056,73.767075 33.547882,73.393745 
	C33.605732,73.037979 33.663582,72.682213 33.721436,72.326447 
	C36.620773,72.070938 39.520115,71.815437 42.419456,71.559929 
	C33.652317,68.656219 26.183048,73.497047 26.040291,81.482048 
	C25.870564,90.975548 25.986422,100.474541 26.034737,109.970871 
	C26.038877,110.784492 26.464714,111.595970 26.694654,112.408440 
	C27.723309,111.099373 27.977036,109.879524 27.980619,108.658936 
	C28.006056,99.995659 27.898127,91.330673 28.063665,82.670647 
	C28.087200,81.439507 29.359453,80.232246 30.108479,79.426666 
	C30.442648,84.965553 30.883394,90.089142 30.965097,95.218445 
	C31.099564,103.660118 31.001558,112.105499 31.001558,120.437454 
	C28.515928,121.014717 26.762373,121.509010 24.976875,121.819801 
	C20.216261,122.648445 18.896145,121.549576 19.083580,116.661163 
	C19.223066,113.023300 19.869276,109.399170 19.912472,105.764427 
	C20.031284,95.766914 19.950874,85.767036 19.950600,75.768097 
	C19.950367,67.265503 20.131004,66.966034 28.980742,67.089447 
	C35.782383,67.184303 42.577579,67.685883 49.378204,67.937180 
	C51.927502,68.031380 54.484039,67.929497 57.023232,68.263916 
	C57.005085,69.072861 57.000984,69.534904 56.633629,69.997864 
	C55.334053,70.236641 54.397736,70.474495 53.461414,70.712349 
	C53.695240,71.176201 53.929070,71.640053 54.162895,72.103905 
	C55.109558,71.403618 56.056221,70.703331 57.436642,70.003220 
	C60.250370,69.323387 62.630337,68.643394 65.363106,67.957588 
	C68.141785,68.966484 70.567665,69.981186 73.058434,71.379616 
	C73.756805,74.964218 74.846474,78.152298 74.936607,81.368401 
	C75.187729,90.328964 74.950768,99.302299 75.092667,108.267647 
	C75.117981,109.866592 76.035202,111.451431 76.540588,113.042778 
	C76.599953,114.735779 76.659317,116.428772 76.301552,118.646385 
	C73.454796,123.185081 69.387810,122.575188 66.181183,121.484077 
	C64.842422,121.028557 64.148010,117.128967 64.079773,114.768761 
	C63.834991,106.301857 63.983025,97.823593 63.982639,89.349625 
	C63.982502,86.325638 63.982616,83.301659 63.982616,80.121811 
	C64.142235,80.121811 63.494698,80.121811 62.908340,80.074776 
	C62.969528,80.027740 62.878529,80.152412 62.870743,79.780457 
	C56.502472,75.780510 52.063255,77.920525 52.048149,84.667862 
	C52.020836,96.864891 52.040417,109.062035 52.040417,121.230255 
	C50.052109,121.833344 48.524784,122.296616 46.665871,122.810226 
	C45.890175,122.820511 45.446079,122.780449 44.714531,122.502625 
	C43.611752,120.724678 42.121365,119.198051 42.090115,117.642128 
	C41.879860,107.172256 42.019066,96.695869 41.939373,86.222397 
	C41.926029,84.468651 41.398464,82.718819 41.108505,80.967178 
	C41.108501,80.967178 40.955753,80.991508 40.921249,80.734978 
	C40.590904,80.320358 40.295067,80.162277 39.999226,80.004196 
z"/>
<path fill="#1F539E" opacity="1.000000" stroke="none" 
	d="
M85.403343,118.905769 
	C85.370514,102.275513 85.337677,85.645264 85.757301,68.564850 
	C87.160858,68.083763 88.111961,68.052841 89.479797,68.023712 
	C98.995872,67.992256 98.997078,67.992256 99.000603,77.310043 
	C99.004135,86.625191 98.954300,95.940895 99.057518,105.254921 
	C99.074432,106.780724 99.760124,108.299118 100.594551,109.865921 
	C108.835281,109.910912 116.618187,109.910912 124.403648,109.910912 
	C124.673622,112.145195 124.944221,113.767281 125.053551,115.400162 
	C125.453125,121.368027 124.868439,121.992867 118.880325,122.007881 
	C110.218102,122.029610 101.549416,121.829124 92.896805,122.119827 
	C89.651100,122.228867 87.251785,121.502724 85.403343,118.905769 
z"/>
<path fill="#D2514C" opacity="1.000000" stroke="none" 
	d="
M31.989803,78.006958 
	C33.915749,78.271149 35.841698,78.535347 37.924362,79.113647 
	C36.994267,79.574402 35.907452,79.721046 34.000610,79.960754 
	C32.832031,81.746353 32.207989,83.434181 32.178902,85.132195 
	C31.963360,97.716942 31.866131,110.303711 31.731728,122.889847 
	C18.019114,123.564026 18.016924,123.564026 18.017893,109.817497 
	C18.018808,96.843369 18.132666,83.867798 17.958998,70.896049 
	C17.910957,67.307678 18.791670,65.890770 22.672571,65.946716 
	C37.140865,66.155304 51.617439,65.874054 66.081825,66.191025 
	C68.648941,66.247284 71.172729,68.280464 73.747955,69.821129 
	C73.779388,70.241493 73.652710,70.367508 73.487389,70.394333 
	C73.126854,70.562897 73.018486,70.754013 72.998428,70.997208 
	C72.999886,70.999893 72.993553,70.995888 72.993553,70.995888 
	C70.567665,69.981186 68.141785,68.966484 64.918571,67.954727 
	C61.759918,67.944130 59.398598,67.930573 57.037277,67.917015 
	C54.484039,67.929497 51.927502,68.031380 49.378204,67.937180 
	C42.577579,67.685883 35.782383,67.184303 28.980742,67.089447 
	C20.131004,66.966034 19.950367,67.265503 19.950600,75.768097 
	C19.950874,85.767036 20.031284,95.766914 19.912472,105.764427 
	C19.869276,109.399170 19.223066,113.023300 19.083580,116.661163 
	C18.896145,121.549576 20.216261,122.648445 24.976875,121.819801 
	C26.762373,121.509010 28.515928,121.014717 31.001558,120.437454 
	C31.001558,112.105499 31.099564,103.660118 30.965097,95.218445 
	C30.883394,90.089142 30.442648,84.965553 30.359623,79.320618 
	C31.033968,78.536873 31.511887,78.271919 31.989803,78.006958 
z"/>
<path fill="#FBEBE8" opacity="1.000000" stroke="none" 
	d="
M45.001980,122.740387 
	C45.446079,122.780449 45.890175,122.820511 47.097366,122.909958 
	C52.558865,123.839645 54.444363,122.121796 54.063591,117.163788 
	C53.659748,111.905426 53.963810,106.592552 53.962318,101.303482 
	C53.960335,94.247925 53.961826,87.192368 53.961826,79.758492 
	C56.101906,79.875175 57.552650,79.954277 59.001266,80.499939 
	C58.988132,94.639359 58.977131,108.312218 58.966133,121.985069 
	C54.504162,122.659103 50.026035,123.245377 45.590263,124.061760 
	C44.294777,124.300186 43.166004,125.467575 41.872589,125.685478 
	C41.092346,125.816917 40.062302,125.051804 39.282501,124.495972 
	C36.237724,122.325714 39.719303,122.781815 40.865028,122.279205 
	C42.624672,122.578568 43.813328,122.659477 45.001980,122.740387 
z"/>
<path fill="#D34F46" opacity="1.000000" stroke="none" 
	d="
M76.666550,112.586899 
	C76.035202,111.451431 75.117981,109.866592 75.092667,108.267647 
	C74.950768,99.302299 75.187729,90.328964 74.936607,81.368401 
	C74.846474,78.152298 73.756805,74.964218 73.058434,71.379616 
	C72.993553,70.995888 72.999886,70.999893 73.160110,70.952461 
	C73.544434,70.795822 73.655220,70.616646 73.652710,70.367508 
	C73.652710,70.367508 73.779388,70.241493 73.839188,70.175163 
	C74.886757,72.345001 76.676926,74.563087 76.727806,76.820374 
	C76.992989,88.585098 76.815773,100.359795 76.666550,112.586899 
z"/>
<path fill="#5474A0" opacity="1.000000" stroke="none" 
	d="
M85.281067,119.310623 
	C87.251785,121.502724 89.651100,122.228867 92.896805,122.119827 
	C101.549416,121.829124 110.218102,122.029610 118.880325,122.007881 
	C124.868439,121.992867 125.453125,121.368027 125.053551,115.400162 
	C124.944221,113.767281 124.673622,112.145195 124.403648,109.910912 
	C116.618187,109.910912 108.835281,109.910912 100.605499,109.555740 
	C100.198029,108.996338 100.237427,108.792114 100.276825,108.587898 
	C107.557793,108.706253 114.839264,108.927345 122.119492,108.892159 
	C125.012718,108.878181 126.432663,109.636490 126.201813,112.815567 
	C125.975967,115.925720 126.152641,119.065102 126.152641,123.063873 
	C123.208206,123.063873 120.634003,123.063774 118.059799,123.063889 
	C108.451492,123.064323 98.843071,123.040482 89.234947,123.082565 
	C86.854576,123.092987 84.786171,122.938736 85.281067,119.310623 
z"/>
<path fill="#FBEBE8" opacity="1.000000" stroke="none" 
	d="
M63.156258,122.916359 
	C62.565266,122.775948 61.974274,122.635536 61.193359,121.779144 
	C60.994785,107.424019 60.986130,93.784882 61.290802,80.073578 
	C62.028923,80.051743 62.453728,80.102081 62.878529,80.152412 
	C62.878529,80.152412 62.969528,80.027740 62.872269,80.531639 
	C62.902092,94.995811 63.029175,108.956085 63.156258,122.916359 
z"/>
<path fill="#FBEBE8" opacity="1.000000" stroke="none" 
	d="
M32.118511,122.763000 
	C31.866131,110.303711 31.963360,97.716942 32.178902,85.132195 
	C32.207989,83.434181 32.832031,81.746353 33.592731,80.040169 
	C34.000019,92.421585 34.055103,104.817276 33.924229,117.211006 
	C33.905079,119.024178 33.000290,120.828011 32.118511,122.763000 
z"/>
<path fill="#FDFAFE" opacity="1.000000" stroke="none" 
	d="
M60.977478,80.145744 
	C60.986130,93.784882 60.994785,107.424019 61.003365,121.531883 
	C60.550865,121.999123 60.098438,121.997643 59.306068,121.990616 
	C58.977131,108.312218 58.988132,94.639359 59.332176,80.441780 
	C60.102638,79.993286 60.540058,80.069519 60.977478,80.145744 
z"/>
<path fill="#403E40" opacity="1.000000" stroke="none" 
	d="
M23.935076,134.916016 
	C22.192787,135.674164 20.484903,135.988892 18.296047,136.392258 
	C18.199427,134.480011 18.074060,133.060242 18.071798,131.640244 
	C18.069746,130.351898 18.201756,129.063324 18.324331,126.897026 
	C21.369207,127.248604 25.019249,126.638199 26.684502,128.176453 
	C28.114346,129.497269 27.275801,133.273743 27.440355,135.964294 
	C26.803982,136.014526 26.167610,136.064758 25.531237,136.114990 
	C25.281319,134.217697 25.031403,132.320389 24.781485,130.423096 
	C24.575905,130.422440 24.370323,130.421768 24.164742,130.421112 
	C24.099653,131.771606 24.034567,133.122116 23.935076,134.916016 
z"/>
<path fill="#434443" opacity="1.000000" stroke="none" 
	d="
M58.964905,125.869324 
	C63.642567,126.674484 63.642567,126.674484 62.675739,136.314743 
	C61.397438,135.429245 60.300983,134.669724 59.100071,133.837845 
	C58.460320,134.605911 57.813290,135.382721 57.166256,136.159531 
	C56.777985,136.113220 56.389709,136.066925 56.001438,136.020615 
	C56.001438,133.387985 56.001438,130.755341 56.367126,127.621948 
	C57.476845,126.703911 58.220875,126.286621 58.964905,125.869324 
z"/>
<path fill="#303030" opacity="1.000000" stroke="none" 
	d="
M48.994797,126.924103 
	C54.578999,127.487183 54.578999,127.487183 53.668770,135.615265 
	C51.564026,135.615265 49.403343,135.615265 46.521088,135.615265 
	C46.846821,132.809998 47.156456,130.143356 47.988708,127.285393 
	C48.672485,127.037422 48.833641,126.980766 48.994797,126.924103 
z"/>
<path fill="#565556" opacity="1.000000" stroke="none" 
	d="
M32.173286,127.029266 
	C37.452209,127.612061 38.005123,128.938004 36.152576,136.414215 
	C35.104515,135.431091 34.258533,134.637512 33.176151,133.622192 
	C32.322914,134.430649 31.393223,135.311554 30.319641,136.328796 
	C29.830791,135.681427 29.264515,135.259842 29.321945,134.956238 
	C29.837376,132.231384 27.079798,128.474258 32.173286,127.029266 
z"/>
<path fill="#474646" opacity="1.000000" stroke="none" 
	d="
M85.482948,130.340576 
	C85.675774,126.220802 88.570496,126.762856 90.553398,127.296600 
	C91.647430,127.591087 92.572983,129.651581 92.969261,131.083450 
	C93.380402,132.569061 93.060822,134.256897 93.060822,136.904694 
	C91.306549,135.333771 90.355103,134.481766 89.106163,133.363358 
	C88.381935,134.304245 87.692055,135.200516 87.002174,136.096802 
	C86.603348,136.082993 86.204521,136.069199 85.805687,136.055405 
	C85.693520,134.289215 85.581352,132.523041 85.482948,130.340576 
z"/>
<path fill="#D34F46" opacity="1.000000" stroke="none" 
	d="
M63.609932,122.939339 
	C63.029175,108.956085 62.902092,94.995811 62.811081,80.578674 
	C63.494698,80.121811 64.142235,80.121811 63.982616,80.121811 
	C63.982616,83.301659 63.982502,86.325638 63.982639,89.349625 
	C63.983025,97.823593 63.834991,106.301857 64.079773,114.768761 
	C64.148010,117.128967 64.842422,121.028557 66.181183,121.484077 
	C69.387810,122.575188 73.454796,123.185081 76.207657,119.060791 
	C77.299438,121.622925 76.594261,123.125923 73.512344,123.024857 
	C70.365471,122.921661 67.213409,122.976608 63.609932,122.939339 
z"/>
<path fill="#353537" opacity="1.000000" stroke="none" 
	d="
M143.075806,129.368988 
	C143.102371,131.871140 143.102371,133.932617 143.102371,135.994080 
	C142.753906,136.059204 142.405441,136.124313 142.056976,136.189423 
	C141.262314,135.190399 140.467651,134.191360 139.432251,132.889679 
	C138.414474,134.176559 137.635620,135.161346 136.856781,136.146118 
	C136.387146,136.014114 135.917526,135.882095 135.447891,135.750076 
	C135.960663,132.946564 136.473419,130.143051 136.986191,127.339546 
	C139.007217,127.869141 141.028229,128.398727 143.075806,129.368988 
z"/>
<path fill="#405F88" opacity="1.000000" stroke="none" 
	d="
M100.243652,108.148804 
	C100.237427,108.792114 100.198029,108.996338 100.147675,109.510750 
	C99.760124,108.299118 99.074432,106.780724 99.057518,105.254921 
	C98.954300,95.940895 99.004135,86.625191 99.000603,77.310043 
	C98.997078,67.992256 98.995872,67.992256 89.473572,67.724335 
	C89.046761,67.024467 89.042923,66.625755 89.039078,66.227051 
	C92.489357,66.227051 95.939644,66.227051 100.210487,66.227051 
	C100.210487,80.269279 100.210487,93.989494 100.243652,108.148804 
z"/>
<path fill="#4B4B4B" opacity="1.000000" stroke="none" 
	d="
M117.492203,136.122910 
	C109.225685,136.165756 115.505630,130.281143 111.931610,127.447403 
	C115.630516,127.447403 117.672089,127.447403 120.277061,127.447403 
	C119.497597,129.532013 118.776123,131.461517 117.964813,133.631271 
	C118.289101,133.904739 119.179459,134.655594 120.069817,135.406433 
	C119.346046,135.641708 118.622269,135.876968 117.492203,136.122910 
z"/>
<path fill="#585858" opacity="1.000000" stroke="none" 
	d="
M167.199066,134.535492 
	C167.131744,131.985855 167.131744,129.864883 167.131744,126.896065 
	C169.824829,127.193733 173.300308,126.721046 173.906891,127.824913 
	C175.135788,130.061142 174.810501,133.151459 175.125961,135.889648 
	C174.523575,136.008881 173.921188,136.128113 173.318817,136.247360 
	C172.732162,134.081741 172.145508,131.916122 171.558868,129.750504 
	C171.149750,129.745728 170.740631,129.740967 170.331512,129.736206 
	C170.174835,131.187256 170.243576,132.721909 169.751663,134.048660 
	C169.552063,134.586990 168.131409,134.672577 167.199066,134.535492 
z"/>
<path fill="#5A5B5B" opacity="1.000000" stroke="none" 
	d="
M128.419739,127.697906 
	C128.935471,128.727936 129.184509,129.458710 129.632217,130.772507 
	C130.863770,129.216431 131.750519,128.096024 133.473602,125.918877 
	C133.473602,130.047821 133.473602,132.930191 133.473602,137.268799 
	C131.974930,135.211365 131.180283,134.120438 130.133621,132.683548 
	C129.249359,133.957993 128.457611,135.099106 127.558151,136.395477 
	C125.284691,132.088379 125.549599,129.139267 128.419739,127.697906 
z"/>
<path fill="#3C3C3C" opacity="1.000000" stroke="none" 
	d="
M94.880959,130.461884 
	C96.039467,126.922058 96.039467,126.922058 101.228134,127.484901 
	C101.562126,130.180969 101.893608,132.856812 102.263504,135.842712 
	C99.651917,135.842712 97.559662,135.842712 94.883835,135.842712 
	C94.883835,134.069153 94.883835,132.465912 94.880959,130.461884 
M100.189392,131.464676 
	C99.515770,130.884079 98.842148,130.303482 98.168518,129.722885 
	C97.895752,130.833084 97.622993,131.943298 97.350227,133.053497 
	C98.218414,132.869720 99.086594,132.685928 100.189392,131.464676 
z"/>
<path fill="#444545" opacity="1.000000" stroke="none" 
	d="
M108.794037,136.093079 
	C103.489151,135.714294 102.579338,133.292847 105.534645,125.974373 
	C106.128716,129.351639 106.529816,131.631882 106.930916,133.912109 
	C107.420776,133.942444 107.910629,133.972778 108.400490,134.003098 
	C108.807350,131.734451 109.214211,129.465790 109.677948,126.879967 
	C112.697144,130.521347 112.381920,134.029724 108.794037,136.093079 
z"/>
<path fill="#3C3A3C" opacity="1.000000" stroke="none" 
	d="
M76.881294,132.025940 
	C76.904617,130.264893 76.904617,128.960419 76.904617,127.436630 
	C79.334106,127.436630 81.348961,127.436630 83.525391,127.436630 
	C82.568436,129.682846 81.789017,131.512344 80.862587,133.686905 
	C81.319084,133.817566 82.529861,134.164093 84.064529,134.603317 
	C79.068039,137.263458 77.412247,136.693298 76.881294,132.025940 
z"/>
<path fill="#383838" opacity="1.000000" stroke="none" 
	d="
M160.193680,129.020905 
	C160.193680,131.224609 160.193680,133.428329 160.193680,135.988571 
	C159.310699,135.341187 158.043854,134.412384 156.777008,133.483582 
	C156.693665,133.911270 156.610321,134.338974 156.526978,134.766663 
	C155.310638,134.709045 154.094299,134.651428 152.423676,134.802338 
	C151.969391,135.010849 151.973602,135.194168 151.973602,135.194168 
	C152.566055,134.315948 153.518188,133.496124 153.672363,132.546722 
	C153.950409,130.834518 153.750977,129.044785 153.750977,127.287430 
	C154.152390,127.205025 154.553802,127.122620 154.955215,127.040215 
	C155.456909,127.975098 155.958618,128.909988 156.460815,129.845795 
	C157.362854,129.278305 158.296188,128.691116 159.608719,128.358276 
	C159.987900,128.612610 160.193680,129.020905 160.193680,129.020905 
z"/>
<path fill="#383736" opacity="1.000000" stroke="none" 
	d="
M178.942276,127.176041 
	C180.740341,127.239052 182.116623,127.344009 183.492889,127.448967 
	C183.547760,127.869888 183.602631,128.290802 183.657516,128.711731 
	C182.279404,129.082199 180.901306,129.452667 179.338806,129.872711 
	C179.338806,131.059479 179.338806,132.400421 179.338806,133.741364 
	C179.967026,134.257660 180.595230,134.773972 181.223450,135.290268 
	C181.895645,133.978973 182.567841,132.667679 183.689301,130.479965 
	C183.833878,132.656113 183.929169,134.090424 184.044586,135.827667 
	C181.600433,135.827667 179.662079,135.827667 176.222458,135.827667 
	C177.037521,132.773972 177.779007,129.995987 178.942276,127.176041 
z"/>
<path fill="#3C3A3E" opacity="1.000000" stroke="none" 
	d="
M151.771393,134.748962 
	C151.973602,135.194168 151.969391,135.010849 151.973358,134.965744 
	C149.929489,135.407684 147.881653,135.894745 144.703186,136.650696 
	C145.127090,132.911377 144.932526,130.063278 145.974670,127.779541 
	C146.367493,126.918732 149.623596,127.364540 152.240295,127.163559 
	C150.070724,129.296692 148.695862,130.648468 147.320999,132.000229 
	C148.737045,132.768066 150.153107,133.535904 151.771393,134.748962 
z"/>
<path fill="#D34F46" opacity="1.000000" stroke="none" 
	d="
M44.714531,122.502625 
	C43.813328,122.659477 42.624672,122.578568 41.172600,122.244583 
	C40.924213,108.626923 40.939247,95.262352 41.031395,81.432480 
	C41.398464,82.718819 41.926029,84.468651 41.939373,86.222397 
	C42.019066,96.695869 41.879860,107.172256 42.090115,117.642128 
	C42.121365,119.198051 43.611752,120.724678 44.714531,122.502625 
z"/>
<path fill="#E6E6E7" opacity="1.000000" stroke="none" 
	d="
M160.508423,128.984863 
	C160.193680,129.020905 159.987900,128.612610 159.969482,128.384735 
	C161.486618,127.678017 163.022171,127.199158 164.557709,126.720306 
	C164.627243,127.311302 164.696762,127.902290 164.766296,128.493286 
	C163.451920,128.645126 162.137558,128.796967 160.508423,128.984863 
z"/>
<path fill="#5474A0" opacity="1.000000" stroke="none" 
	d="
M88.683640,66.136520 
	C89.042923,66.625755 89.046761,67.024467 89.056831,67.722549 
	C88.111961,68.052841 87.160858,68.083763 85.854401,68.113647 
	C86.442093,67.423737 87.385147,66.734856 88.683640,66.136520 
z"/>
<path fill="#FBEBE8" opacity="1.000000" stroke="none" 
	d="
M58.766468,125.653656 
	C58.220875,126.286621 57.476845,126.703911 56.410557,127.187950 
	C56.914879,126.649132 57.741455,126.043564 58.766468,125.653656 
z"/>
<path fill="#FBEBE8" opacity="1.000000" stroke="none" 
	d="
M48.977364,126.681671 
	C48.833641,126.980766 48.672485,127.037422 48.258804,127.051010 
	C48.153599,126.577850 48.300915,126.147766 48.448238,125.717682 
	C48.618805,125.958199 48.789371,126.198715 48.977364,126.681671 
z"/>
<path fill="#FBEBE8" opacity="1.000000" stroke="none" 
	d="
M40.078407,80.217934 
	C40.295067,80.162277 40.590904,80.320358 40.850124,80.765350 
	C40.537411,80.906120 40.318771,80.699257 40.078407,80.217934 
z"/>
<path fill="#E6E6E7" opacity="1.000000" stroke="none" 
	d="
M163.424500,135.542526 
	C163.379517,135.476379 163.469498,135.608673 163.424500,135.542526 
z"/>
<path fill="#ED3129" opacity="1.000000" stroke="none" 
	d="
M32.180679,77.669456 
	C31.511887,78.271919 31.033968,78.536873 30.304907,78.907883 
	C29.359453,80.232246 28.087200,81.439507 28.063665,82.670647 
	C27.898127,91.330673 28.006056,99.995659 27.980619,108.658936 
	C27.977036,109.879524 27.723309,111.099373 26.694654,112.408440 
	C26.464714,111.595970 26.038877,110.784492 26.034737,109.970871 
	C25.986422,100.474541 25.870564,90.975548 26.040291,81.482048 
	C26.183048,73.497047 33.652317,68.656219 42.419456,71.559929 
	C39.520115,71.815437 36.620773,72.070938 33.721436,72.326447 
	C33.663582,72.682213 33.605732,73.037979 33.547882,73.393745 
	C35.821056,73.767075 38.094234,74.140404 40.367409,74.513741 
	C40.375595,74.749054 40.383778,74.984367 40.391960,75.219681 
	C37.718491,75.923775 35.045025,76.627869 32.180679,77.669456 
z"/>
<path fill="#D34F46" opacity="1.000000" stroke="none" 
	d="
M61.290802,80.073578 
	C60.540058,80.069519 60.102638,79.993286 59.334305,79.975212 
	C57.552650,79.954277 56.101906,79.875175 53.961826,79.758492 
	C53.961826,87.192368 53.960335,94.247925 53.962318,101.303482 
	C53.963810,106.592552 53.659748,111.905426 54.063591,117.163788 
	C54.444363,122.121796 52.558865,123.839645 47.428959,122.859604 
	C48.524784,122.296616 50.052109,121.833344 52.040417,121.230255 
	C52.040417,109.062035 52.020836,96.864891 52.048149,84.667862 
	C52.063255,77.920525 56.502472,75.780510 62.870743,79.780457 
	C62.453728,80.102081 62.028923,80.051743 61.290802,80.073578 
z"/>
<path fill="#ED3129" opacity="1.000000" stroke="none" 
	d="
M57.023232,68.263916 
	C59.398598,67.930573 61.759918,67.944130 64.565773,67.960541 
	C62.630337,68.643394 60.250370,69.323387 57.435204,70.001694 
	C57.000000,70.000000 56.996887,69.996948 56.996887,69.996948 
	C57.000984,69.534904 57.005085,69.072861 57.023232,68.263916 
z"/>
<path fill="#ED3129" opacity="1.000000" stroke="none" 
	d="
M57.001442,70.001526 
	C56.056221,70.703331 55.109558,71.403618 54.162895,72.103905 
	C53.929070,71.640053 53.695240,71.176201 53.461414,70.712349 
	C54.397736,70.474495 55.334053,70.236641 56.633629,69.997864 
	C56.996887,69.996948 57.000000,70.000000 57.001442,70.001526 
z"/>
<path fill="#E3372A" opacity="1.000000" stroke="none" 
	d="
M73.487389,70.394333 
	C73.655220,70.616646 73.544434,70.795822 73.158653,70.949768 
	C73.018486,70.754013 73.126854,70.562897 73.487389,70.394333 
z"/>
<path fill="#FAF9F9" opacity="1.000000" stroke="none" 
	d="
M100.072083,131.983414 
	C99.086594,132.685928 98.218414,132.869720 97.350227,133.053497 
	C97.622993,131.943298 97.895752,130.833084 98.168518,129.722885 
	C98.842148,130.303482 99.515770,130.884079 100.072083,131.983414 
z"/>
</svg>