<?xml version="1.0" encoding="UTF-8"?>
<svg version="1.1" xmlns="http://www.w3.org/2000/svg" width="402" height="225">
<path d="M0 0 C132.66 0 265.32 0 402 0 C402 74.25 402 148.5 402 225 C269.34 225 136.68 225 0 225 C0 150.75 0 76.5 0 0 Z " fill="#FBFDFE" transform="translate(0,0)"/>
<path d="M0 0 C43.56 0 87.12 0 132 0 C129.41667604 2.06665917 126.82644421 4.12748114 124.16015625 6.0859375 C95.22776744 27.46598774 76.83609054 57.43763536 71 93 C69.69542196 102.33080774 69.82232876 111.60014609 70 121 C70.01675781 122.04285156 70.03351563 123.08570312 70.05078125 124.16015625 C70.90041151 141.03138562 76.49411218 157.03818674 84 172 C84.51691406 173.04800781 85.03382812 174.09601563 85.56640625 175.17578125 C91.17092924 185.97250538 98.67140892 195.1970838 107 204 C107.75925781 204.82371094 108.51851563 205.64742187 109.30078125 206.49609375 C115.10086271 212.58095826 121.3798699 217.34840103 128.2890625 222.06640625 C129.18367187 222.70449219 130.07828125 223.34257812 131 224 C131 224.33 131 224.66 131 225 C87.77 225 44.54 225 0 225 C0 150.75 0 76.5 0 0 Z " fill="#223C62" transform="translate(0,0)"/>
<path d="M0 0 C43.56 0 87.12 0 132 0 C132 74.25 132 148.5 132 225 C88.77 225 45.54 225 1 225 C4.05255694 221.94744306 6.64323025 219.73349733 10.125 217.3125 C23.24652103 207.85523351 33.10218358 196.44367421 42 183 C42.75216797 181.88625 42.75216797 181.88625 43.51953125 180.75 C58.31001962 157.64717911 62.82759095 130.91222305 62 104 C61.9690625 102.75863281 61.938125 101.51726562 61.90625 100.23828125 C60.21705707 66.5811122 42.12328741 36.22967676 17.96533203 13.72753906 C13.81254959 10.0772175 9.31896376 6.92862744 4.73046875 3.85546875 C2 2 2 2 0 0 Z " fill="#223D62" transform="translate(270,0)"/>
<path d="M0 0 C1.26115631 0.00007553 2.52231262 0.00015106 3.82168579 0.00022888 C5.20322712 0.0053359 6.58476806 0.0105519 7.96630859 0.01586914 C9.37592519 0.01773395 10.78554244 0.01915756 12.19515991 0.02015686 C15.90728542 0.02397706 19.61937187 0.03380311 23.33148193 0.04486084 C27.11860628 0.05508564 30.90573693 0.05965677 34.69287109 0.06469727 C42.12518058 0.07542581 49.55745786 0.09249628 56.98974609 0.11352539 C51.91863676 6.2434403 46.3945339 11.84409127 40.76171875 17.45507812 C39.73600121 18.48051312 38.71050476 19.5061693 37.68521118 20.5320282 C34.91929355 23.29823115 32.15031738 26.06135359 29.38075686 28.82390857 C26.48017638 31.71821123 23.58245302 34.61537158 20.68441772 37.51222229 C15.20423149 42.98930822 9.72150254 48.46384139 4.23784196 53.93744856 C-2.00841896 60.17250785 -8.25181938 66.41042813 -14.4949882 72.64858329 C-27.33024314 85.47340331 -40.16906301 98.29464905 -53.01025391 111.11352539 C-51.48874787 114.69918361 -49.37957352 116.98875303 -46.63168335 119.72587585 C-45.71179123 120.64707214 -44.79189911 121.56826843 -43.84413147 122.51737976 C-42.82195731 123.53088141 -41.79969166 124.5442908 -40.77734375 125.55761719 C-39.7027341 126.63002525 -38.62857211 127.70288205 -37.55482483 128.77615356 C-35.2435988 131.08444775 -32.9292532 133.38955152 -30.6124382 135.69223595 C-26.9526972 139.32972197 -23.3000474 142.97427288 -19.64834595 146.61982727 C-13.87585194 152.38094295 -8.09870269 158.13736433 -2.31951296 163.89176255 C8.04128831 174.20820204 18.39646714 184.53027798 28.74649465 194.85752612 C32.38174948 198.48434886 36.01979368 202.10834408 39.66006875 205.73012769 C41.91773771 207.97719361 44.17340954 210.22625626 46.42857552 212.47583389 C47.47908132 213.52285388 48.53045839 214.56900048 49.58274269 215.61423302 C51.01247353 217.03458852 52.43891022 218.45825768 53.86514282 219.88212585 C54.66634867 220.67981227 55.46755451 221.47749868 56.29303932 222.29935741 C57.98974609 224.11352539 57.98974609 224.11352539 57.98974609 225.11352539 C49.70500747 225.29985002 41.42116078 225.44151066 33.13483715 225.52802277 C29.28599117 225.56957014 25.43859046 225.62580812 21.59057617 225.71704102 C17.8686511 225.80472035 14.14810521 225.85195285 10.42522621 225.87254333 C9.01343406 225.88719298 7.60170753 225.91579944 6.1905117 225.95936584 C-4.36033655 226.27178727 -10.21298629 224.20542906 -18.01025391 217.11352539 C-18.88450516 216.3621228 -19.75875641 215.61072021 -20.65950012 214.83654785 C-23.17481647 212.65853034 -25.59509438 210.40196359 -28.01025391 208.11352539 C-28.90744141 207.28079102 -29.80462891 206.44805664 -30.72900391 205.59008789 C-53.15506549 184.10894463 -68.11376524 152.30386007 -69.01025391 121.11352539 C-69.03603516 120.43628418 -69.06181641 119.75904297 -69.08837891 119.0612793 C-70.15166093 88.56502171 -62.00412288 59.86398548 -44.01025391 35.11352539 C-43.41986328 34.29883789 -42.82947266 33.48415039 -42.22119141 32.64477539 C-32.98028848 20.53329411 -16.42312114 -0.03271538 0 0 Z " fill="#44BBD4" transform="translate(138.01025390625,-0.113525390625)"/>
<path d="M0 0 C8.05860984 -0.1395718 16.11670727 -0.24590677 24.17623043 -0.31087303 C27.91943767 -0.34206821 31.66181266 -0.38431854 35.40454102 -0.45263672 C39.02265554 -0.51826019 42.63997426 -0.55379469 46.25863838 -0.56926346 C47.63291502 -0.58027378 49.00715246 -0.60177409 50.38108635 -0.63438034 C59.41189902 -0.84000128 65.08486388 0.03105361 72 6 C72.83789062 6.59683594 73.67578125 7.19367187 74.5390625 7.80859375 C102.27563087 29.46804883 120.31655382 59.23915072 125.46484375 94.15234375 C125.78044981 97.4424288 125.91394113 100.6953395 126 104 C126.03109863 104.82242188 126.06219727 105.64484375 126.09423828 106.4921875 C126.57756452 120.20990921 125.72904704 132.76954545 122 146 C121.78569336 146.76151367 121.57138672 147.52302734 121.35058594 148.30761719 C113.65471904 174.80066698 98.41841562 198.47737746 77 216 C75.61334892 217.16165932 75.61334892 217.16165932 74.19868469 218.3467865 C65.79290351 224.82809976 59.46779219 226.26089847 48.73046875 225.87890625 C47.31419473 225.86206662 45.89786737 225.84928083 44.48152161 225.84031677 C40.79927222 225.80636736 37.1203495 225.71835152 33.43939209 225.61798096 C29.66513049 225.52499264 25.8903175 225.48461562 22.11523438 225.43945312 C14.74199215 225.34366742 7.37146653 225.19060287 0 225 C5.09728873 218.83584687 10.6566778 213.20806479 16.31982422 207.56665039 C17.35539385 206.5313633 18.3907424 205.49585504 19.42588806 204.46014404 C22.21866428 201.66708248 25.0144994 198.87710156 27.81091833 196.08768773 C30.73952579 193.16535761 33.66527659 190.24017026 36.59133911 187.31529236 C42.12464934 181.78508257 47.66050236 176.25742552 53.19728673 170.73069423 C59.50400577 164.43517638 65.80786471 158.13679792 72.11149192 151.83818448 C85.07116111 138.88895052 98.03439527 125.94329077 111 113 C105.90568357 106.83729578 100.34572469 101.21709922 94.68017578 95.58251953 C93.64459769 94.54886378 92.60924938 93.51497778 91.57411194 92.48088074 C89.35752506 90.26743803 87.13939874 88.05555415 84.92004776 85.84488297 C81.4134873 82.35190015 77.91079399 78.85505648 74.40866089 75.3576355 C66.9837402 67.94378214 59.55457504 60.53418868 52.125 53.125 C44.0827053 45.10472828 36.04115165 37.08372153 28.00443828 29.05785644 C24.51934441 25.57775666 21.0318244 22.10011185 17.54245305 18.6243012 C15.38087997 16.47015565 13.22135216 14.31396886 11.06239128 12.15720558 C10.05703086 11.1537262 9.05080203 10.15111603 8.04366875 9.14941597 C6.67544672 7.78834723 5.31053635 6.42395177 3.9458313 5.05935669 C2.79606151 3.91291781 2.79606151 3.91291781 1.62306404 2.74331856 C0 1 0 1 0 0 Z " fill="#369ED7" transform="translate(207,0)"/>
<path d="M0 0 C13.86 0 27.72 0 42 0 C40.36016056 4.09959861 38.72243474 7.19953445 36.375 10.875 C28.15759994 24.05224854 21.94207909 37.26068372 17 52 C16.64228516 53.03930664 16.64228516 53.03930664 16.27734375 54.09960938 C6.18348106 83.77556568 3.83641587 119.33619354 11 150 C11.16628906 150.77939941 11.33257812 151.55879883 11.50390625 152.36181641 C16.66967317 176.55960795 26.1326663 200.69498499 40.6015625 220.8828125 C42 223 42 223 42 225 C28.14 225 14.28 225 0 225 C0 150.75 0 76.5 0 0 Z " fill="#D1D2D3" transform="translate(0,0)"/>
<path d="M0 0 C13.86 0 27.72 0 42 0 C42 74.25 42 148.5 42 225 C28.14 225 14.28 225 0 225 C1.54342918 221.14142705 2.87200084 218.48878013 5.125 215.125 C9.52463953 208.29734364 13.40977043 201.27817708 17 194 C17.2990625 193.39575195 17.598125 192.79150391 17.90625 192.16894531 C22.6562388 182.30317616 25.55872726 171.93449428 28.3125 161.375 C28.48362305 160.72635986 28.65474609 160.07771973 28.83105469 159.40942383 C32.90867788 143.81468408 34.41667257 128.66934141 34.375 112.625 C34.37368576 111.38059647 34.37368576 111.38059647 34.37234497 110.11105347 C34.24475315 73.29441266 24.29862611 35.25422764 2.234375 5.17578125 C0 2 0 2 0 0 Z " fill="#D1D2D3" transform="translate(360,0)"/>
<path d="M0 0 C6.27 0 12.54 0 19 0 C21.65356214 8.32784595 23.65662256 16.751728 25.58935547 25.26855469 C26.12573585 27.62823722 26.66996094 29.98601808 27.21484375 32.34375 C27.56297219 33.86707967 27.91064417 35.39051374 28.2578125 36.9140625 C28.41823029 37.60698395 28.57864807 38.2999054 28.743927 39.01382446 C29.79041844 43.66049872 30.47016138 48.26584889 31 53 C31.19634033 51.89188965 31.39268066 50.7837793 31.5949707 49.64208984 C32.33611399 45.46309327 33.08056418 41.28469104 33.82592773 37.10644531 C34.14581639 35.3107031 34.4648519 33.51480867 34.78295898 31.71875 C36.6649703 21.09650033 38.66478346 10.5336229 41 0 C47.27 0 53.54 0 60 0 C60 23.1 60 46.2 60 70 C56.04 70 52.08 70 48 70 C47.67 54.49 47.34 38.98 47 23 C45.535625 29.64125 44.07125 36.2825 42.5625 43.125 C42.10174072 45.21086426 41.64098145 47.29672852 41.16625977 49.44580078 C40.79952102 51.11227808 40.43289562 52.77878034 40.06640625 54.4453125 C39.78259094 55.72716431 39.78259094 55.72716431 39.49304199 57.03491211 C39.21913635 58.28244263 39.21913635 58.28244263 38.93969727 59.55517578 C38.78203384 60.27021271 38.62437042 60.98524963 38.46192932 61.72195435 C37.90507849 64.46811392 37.46065392 67.23607648 37 70 C32.71 70 28.42 70 24 70 C22.61092332 64.46856656 21.22344826 58.93673467 19.83740234 53.40454102 C19.36647939 51.52585214 18.89513261 49.64726945 18.42333984 47.76879883 C17.7420256 45.05578535 17.06227856 42.34238312 16.3828125 39.62890625 C16.17439728 38.80040665 15.96598206 37.97190704 15.75125122 37.11830139 C15.55119476 36.31815109 15.35113831 35.51800079 15.14501953 34.69360352 C14.97181183 34.00299332 14.79860413 33.31238312 14.62014771 32.60084534 C13.70066127 28.74459948 12.85998871 24.8699492 12 21 C11.67 37.17 11.34 53.34 11 70 C7.37 70 3.74 70 0 70 C0 46.9 0 23.8 0 0 Z " fill="#1378BB" transform="translate(126,75)"/>
<path d="M0 0 C28 0 28 0 36 5 C41.81019507 11.25713315 41.4166995 17.72596015 41.27734375 25.80859375 C40.9808109 32.499024 38.85802867 36.14197133 34.1875 40.8125 C26.83033247 45.86153654 23.48904014 46 14 46 C14 53.92 14 61.84 14 70 C9.38 70 4.76 70 0 70 C0 46.9 0 23.8 0 0 Z " fill="#1479BC" transform="translate(246,75)"/>
<path d="M0 0 C9.69690263 -0.74485454 15.55463713 -0.36015315 23 6 C23.73992187 6.54527344 24.47984375 7.09054688 25.2421875 7.65234375 C53.32915858 28.69454995 71.35669865 59.51139334 76.46484375 94.15234375 C76.78044981 97.4424288 76.91394113 100.6953395 77 104 C77.03109863 104.82242188 77.06219727 105.64484375 77.09423828 106.4921875 C77.57756452 120.20990921 76.72904704 132.76954545 73 146 C72.78569336 146.76151367 72.57138672 147.52302734 72.35058594 148.30761719 C64.68408961 174.69955869 49.47037469 198.64370908 28 216 C27.01515625 216.84046875 26.0303125 217.6809375 25.015625 218.546875 C17.55261049 224.56239148 12.126457 225.90896541 2.82421875 225.31640625 C1.89222656 225.21199219 0.96023438 225.10757813 0 225 C2.97915323 222.65024534 6.05056923 220.8216059 9.375 219 C37.73982485 202.61297757 56.49865541 175.62980211 65.25 144.375 C65.8556612 141.92207214 66.44051835 139.46387111 67 137 C67.226875 136.02546875 67.45375 135.0509375 67.6875 134.046875 C70.87814042 117.4732706 70.16907178 99.31842687 66 83 C65.70996094 81.80375 65.41992188 80.6075 65.12109375 79.375 C60.56983448 62.00785164 51.75155902 45.54912062 40 32 C39.33613281 31.19175781 38.67226563 30.38351563 37.98828125 29.55078125 C27.87360813 17.6412678 14.19140113 7.52037349 0 1 C0 0.67 0 0.34 0 0 Z " fill="#F5F8FA" transform="translate(256,0)"/>
<path d="M0 0 C1.28132813 0.00902344 2.56265625 0.01804688 3.8828125 0.02734375 C5.36394531 0.04474609 5.36394531 0.04474609 6.875 0.0625 C3.84104651 2.45810394 0.69494682 4.32287552 -2.6875 6.1875 C-9.07621076 9.87598831 -14.55506196 14.25131513 -20.125 19.0625 C-20.83398438 19.63742188 -21.54296875 20.21234375 -22.2734375 20.8046875 C-38.46071243 34.17678418 -50.17370519 54.10815857 -56.125 74.0625 C-56.64461811 75.4379597 -57.16539623 76.8129819 -57.6875 78.1875 C-67.82361034 109.48691764 -62.01711866 143.26975346 -47.50439453 172.10302734 C-43.27047137 180.05761127 -37.81912846 187.10849107 -32.125 194.0625 C-31.69429199 194.59246582 -31.26358398 195.12243164 -30.81982422 195.66845703 C-21.83494894 206.56515968 -10.93342784 214.30341189 1.2019043 221.28369141 C2.77267508 222.18761575 4.3259099 223.12190449 5.875 224.0625 C5.875 224.3925 5.875 224.7225 5.875 225.0625 C-1.60431427 225.8486469 -7.59716542 226.17350281 -13.875 221.625 C-15.65611967 220.1407336 -17.40686116 218.61923792 -19.125 217.0625 C-19.95515625 216.35351562 -20.7853125 215.64453125 -21.640625 214.9140625 C-24.19592245 212.68822164 -26.66517927 210.39325606 -29.125 208.0625 C-30.0221875 207.22976562 -30.919375 206.39703125 -31.84375 205.5390625 C-54.26981158 184.05791924 -69.22851134 152.25283468 -70.125 121.0625 C-70.15078125 120.38525879 -70.1765625 119.70801758 -70.203125 119.01025391 C-71.26640703 88.51399632 -63.11886897 59.81296009 -45.125 35.0625 C-44.53460938 34.2478125 -43.94421875 33.433125 -43.3359375 32.59375 C-33.55581993 19.77555336 -17.24875386 -0.15680685 0 0 Z " fill="#F5F8FA" transform="translate(139.125,-0.0625)"/>
<path d="M0 0 C4.62 0 9.24 0 14 0 C14.38671875 1.81242187 14.7734375 3.62484375 15.171875 5.4921875 C15.42243652 6.66418701 15.67299805 7.83618652 15.93115234 9.04370117 C16.47936983 11.60875096 17.02656187 14.17402011 17.57275391 16.73950195 C18.77168356 22.35305934 19.97465703 27.96298575 21.2890625 33.55078125 C21.47500977 34.34822754 21.66095703 35.14567383 21.85253906 35.96728516 C22.1872238 37.38953889 22.52962269 38.81001275 22.88183594 40.22802734 C24.04951968 45.21642253 24.17145581 49.91567571 24 55 C24.66 55 25.32 55 26 55 C25.96011963 53.71971924 25.92023926 52.43943848 25.87915039 51.12036133 C25.88378477 45.91595748 26.79312806 41.13524459 27.93359375 36.07421875 C28.13098648 35.16420609 28.32837921 34.25419342 28.53175354 33.31660461 C29.15830475 30.43825218 29.79773549 27.56294103 30.4375 24.6875 C30.86347104 22.73911593 31.28860896 20.79054952 31.71289062 18.84179688 C34.64070733 5.4371707 34.64070733 5.4371707 36 0 C40.29 0 44.58 0 49 0 C48.35278648 6.15878046 47.15589454 12.01941762 45.671875 18.02734375 C45.44099182 18.97452774 45.21010864 19.92171173 44.972229 20.89759827 C44.48352164 22.89752132 43.99257415 24.89689815 43.49951172 26.89575195 C42.7602775 29.89579078 42.02998903 32.89790106 41.30078125 35.90039062 C38.49733988 47.36982257 35.42673116 58.70054161 32 70 C27.05 70 22.1 70 17 70 C16.74347656 68.87851563 16.48695313 67.75703125 16.22265625 66.6015625 C14.19987202 57.88705181 12.07824846 49.20571017 9.76953125 40.5625 C9.57345779 39.82792572 9.37738434 39.09335144 9.17536926 38.33651733 C8.19500435 34.67094826 7.20733127 31.00750085 6.21118164 27.34619141 C3.76280665 18.28085861 1.75177101 9.22748167 0 0 Z " fill="#1378BB" transform="translate(191,75)"/>
<path d="M0 0 C10.89 0 21.78 0 33 0 C31.35 3.3 29.7 6.6 28 10 C27.34 10 26.68 10 26 10 C25.87778076 10.56879883 25.75556152 11.13759766 25.62963867 11.72363281 C24.96181526 14.13805137 24.03854901 16.17867271 22.92578125 18.421875 C22.50844727 19.27370361 22.09111328 20.12553223 21.66113281 21.00317383 C21.21608398 21.90962646 20.77103516 22.8160791 20.3125 23.75 C10.3676885 44.43541966 3.34331281 66.05169526 1 89 C0.67 89 0.34 89 0 89 C0 59.63 0 30.26 0 0 Z " fill="#000000" transform="translate(0,0)"/>
<path d="M0 0 C0.33 0 0.66 0 1 0 C1.15855469 0.98355469 1.31710938 1.96710938 1.48046875 2.98046875 C5.47731618 27.06169544 11.46198764 49.41636644 23 71 C23.84304687 72.58361328 23.84304687 72.58361328 24.703125 74.19921875 C27.39338176 79.17891118 30.19121768 84.08463094 33 89 C22.11 89 11.22 89 0 89 C0 59.63 0 30.26 0 0 Z " fill="#000000" transform="translate(0,136)"/>
<path d="M0 0 C10.89 0 21.78 0 33 0 C33 29.04 33 58.08 33 88 C32.67 88 32.34 88 32 88 C31.91024902 87.41323486 31.82049805 86.82646973 31.72802734 86.22192383 C28.86974799 67.88871361 25.42056421 49.6861487 17 33 C16.03781449 30.87674146 15.07971044 28.75163014 14.125 26.625 C9.90009259 17.47829323 4.99635131 8.7436148 0 0 Z " fill="#000000" transform="translate(369,0)"/>
<path d="M0 0 C0.33 0 0.66 0 1 0 C1 29.04 1 58.08 1 88 C-9.56 88 -20.12 88 -31 88 C-29.44667162 83.34001487 -28.51186608 80.98336071 -25.875 77.1875 C-21.08549033 69.83893839 -17.49047765 62.02718246 -14 54 C-13.58403564 53.04746338 -13.58403564 53.04746338 -13.15966797 52.07568359 C-6.17865252 35.7405397 -2.03156522 17.61857426 0 0 Z " fill="#000000" transform="translate(401,137)"/>
<path d="M0 0 C0.90234375 2.10546875 0.90234375 2.10546875 1 5 C-0.82258937 7.46640907 -3.10301481 9.34061612 -5.4375 11.3125 C-7.603125 13.189375 -9.76875 15.06625 -12 17 C-5.73 17 0.54 17 7 17 C7 18.65 7 20.3 7 22 C3.71106997 23.50605402 0.41842554 25.00380532 -2.875 26.5 C-3.81214844 26.92925781 -4.74929687 27.35851562 -5.71484375 27.80078125 C-6.61074219 28.20683594 -7.50664063 28.61289063 -8.4296875 29.03125 C-9.25710449 29.40830078 -10.08452148 29.78535156 -10.93701172 30.17382812 C-13 31 -13 31 -15 31 C-15.33 29.68 -15.66 28.36 -16 27 C-11.38 25.02 -6.76 23.04 -2 21 C-7.61 21 -13.22 21 -19 21 C-17.84706 16.38824 -15.88183637 14.70843124 -12.4375 11.75 C-11.91736328 11.29109375 -11.39722656 10.8321875 -10.86132812 10.359375 C-9.58104445 9.2317857 -8.29141202 8.11482685 -7 7 C-7.81984375 7.3609375 -8.6396875 7.721875 -9.484375 8.09375 C-10.56203125 8.5578125 -11.6396875 9.021875 -12.75 9.5 C-13.81734375 9.9640625 -14.8846875 10.428125 -15.984375 10.90625 C-19 12 -19 12 -23 12 C-23 11.01 -23 10.02 -23 9 C-19.73330954 7.4908559 -16.46101184 5.99428299 -13.1875 4.5 C-12.25873047 4.07074219 -11.32996094 3.64148438 -10.37304688 3.19921875 C-9.48037109 2.79316406 -8.58769531 2.38710937 -7.66796875 1.96875 C-6.84578857 1.59169922 -6.0236084 1.21464844 -5.17651367 0.82617188 C-3 0 -3 0 0 0 Z " fill="#EDEFF2" transform="translate(56,147)"/>
<path d="M0 0 C8 0 8 0 10.9375 1.875 C14.82205266 5.87726638 14.40312984 9.68230397 14.33203125 15.06640625 C14 18 14 18 12.0625 21.25 C9 23 9 23 0 23 C0 15.41 0 7.82 0 0 Z " fill="#F6FAFC" transform="translate(259,86)"/>
<path d="M0 0 C4.4787628 1.49292093 6.4112986 2.65200574 9.5625 6.1875 C10.25 9.6875 10.25 9.6875 9.5625 13.1875 C7.5 16.1875 7.5 16.1875 4.5625 18.1875 C0.16401794 18.34458864 -1.81050943 17.66455804 -5.3125 15 C-7.74067745 11.78623573 -8.6021082 10.22040094 -8.4375 6.1875 C-6.01975707 2.03200433 -4.91852133 0.26828298 0 0 Z " fill="#EAECF0" transform="translate(338.4375,184.8125)"/>
<path d="M0 0 C2.4375 1.5625 2.4375 1.5625 4 4 C4.5625 7.4375 4.5625 7.4375 4 11 C0.76940629 14.9107187 -1.3483519 16.78589747 -6.375 17.4375 C-10 17 -10 17 -12.4375 14.3125 C-14.86860392 9.1585597 -14.86860392 9.1585597 -14 6 C-10.09783111 1.16819675 -6.36127023 -1.20023967 0 0 Z " fill="#E8EBEF" transform="translate(61,179)"/>
<path d="M0 0 C6.34358004 -0.92510542 11.27753368 1.42086025 17 4 C17 4.99 17 5.98 17 7 C16.34 7 15.68 7 15 7 C15.020625 7.94875 15.04125 8.8975 15.0625 9.875 C15 13 15 13 14 15 C8.66666667 15.35555556 8.66666667 15.35555556 6.125 14 C4.29511053 10.74686316 4.81871645 7.68609891 5 4 C4.01 4.33 3.02 4.66 2 5 C1.67 6.65 1.34 8.3 1 10 C0.01 9.67 -0.98 9.34 -2 9 C-2.25 3.375 -2.25 3.375 0 0 Z " fill="#E5E8EC" transform="translate(348,150)"/>
<path d="M0 0 C3.63068138 0.24032879 5.92491793 1.13105753 9.1796875 2.71875 C10.62988281 3.41484375 10.62988281 3.41484375 12.109375 4.125 C12.83382813 4.4859375 13.55828125 4.846875 14.3046875 5.21875 C13.9746875 6.20875 13.6446875 7.19875 13.3046875 8.21875 C9.5250841 7.70334954 6.68828562 6.91054906 3.3046875 5.21875 C1.9846875 5.21875 0.6646875 5.21875 -0.6953125 5.21875 C-0.58082405 7.14500985 -0.58082405 7.14500985 0.3046875 9.21875 C2.60316237 10.79189972 2.60316237 10.79189972 5.3671875 11.96875 C6.74583984 12.61070312 6.74583984 12.61070312 8.15234375 13.265625 C9.21775391 13.73742187 9.21775391 13.73742187 10.3046875 14.21875 C9.9746875 15.53875 9.6446875 16.85875 9.3046875 18.21875 C3.49207379 16.47892005 -1.52701244 14.4077011 -6.6953125 11.21875 C-6.2200537 9.57178396 -5.73999359 7.92620272 -5.2578125 6.28125 C-4.99097656 5.36472656 -4.72414063 4.44820312 -4.44921875 3.50390625 C-3.38383358 0.27462997 -3.38383358 0.27462997 0 0 Z " fill="#DADFE5" transform="translate(344.6953125,166.78125)"/>
<path d="M0 0 C6.46153846 0.46153846 6.46153846 0.46153846 9 3 C8.625 5.625 8.625 5.625 8 8 C7.34 8 6.68 8 6 8 C5.67 6.35 5.34 4.7 5 3 C4.01 3 3.02 3 2 3 C2.03480469 3.61488281 2.06960937 4.22976562 2.10546875 4.86328125 C2.13253906 5.67152344 2.15960938 6.47976562 2.1875 7.3125 C2.22230469 8.11300781 2.25710937 8.91351563 2.29296875 9.73828125 C2 12 2 12 0.640625 13.76171875 C-1 15 -1 15 -3.4375 15.5 C-6 15 -6 15 -8.375 12.75 C-10 10 -10 10 -9.75 7.6875 C-9.5025 7.130625 -9.255 6.57375 -9 6 C-8.34 6 -7.68 6 -7 6 C-6.731875 6.639375 -6.46375 7.27875 -6.1875 7.9375 C-5.11332248 10.33131686 -5.11332248 10.33131686 -2 11 C-2.02320313 10.37351563 -2.04640625 9.74703125 -2.0703125 9.1015625 C-2.09738281 7.87566406 -2.09738281 7.87566406 -2.125 6.625 C-2.14820313 5.81289062 -2.17140625 5.00078125 -2.1953125 4.1640625 C-2 2 -2 2 0 0 Z " fill="#E4E7EC" transform="translate(66,196)"/>
<path d="M0 0 C2.9375 0.1875 2.9375 0.1875 3.9375 1.1875 C4.06237758 2.99677281 4.11320846 4.81146107 4.125 6.625 C4.13917969 7.61371094 4.15335938 8.60242188 4.16796875 9.62109375 C3.9375 12.1875 3.9375 12.1875 1.9375 14.1875 C-0.5625 14.4375 -0.5625 14.4375 -3.0625 14.1875 C-5.0625 12.1875 -5.0625 12.1875 -5.328125 9.875 C-5.32296875 8.988125 -5.3178125 8.10125 -5.3125 7.1875 C-5.31765625 6.300625 -5.3228125 5.41375 -5.328125 4.5 C-4.89507748 0.72993924 -3.67550161 0.22503071 0 0 Z " fill="#2884C1" transform="translate(198.0625,171.8125)"/>
<path d="M0 0 C2.64 0 5.28 0 8 0 C8 3.38023517 7.12544378 5.83468937 6 9 C5.29875 8.731875 4.5975 8.46375 3.875 8.1875 C0.53988725 7.96999265 0.13449613 8.36830612 -2.3125 10.4375 C-3.199375 11.283125 -4.08625 12.12875 -5 13 C-4.67 14.32 -4.34 15.64 -4 17 C-5.32 17.33 -6.64 17.66 -8 18 C-10 15 -10 15 -9.875 13.03125 C-8.42937148 9.67532664 -5.62815396 7.99354954 -2.8125 5.78125 C-0.83361999 3.83648862 -0.37984133 2.70636946 0 0 Z " fill="#E8EBEE" transform="translate(77,206)"/>
<path d="M0 0 C0.598125 0.226875 1.19625 0.45375 1.8125 0.6875 C1.4825 1.3475 1.1525 2.0075 0.8125 2.6875 C0.1525 2.6875 -0.5075 2.6875 -1.1875 2.6875 C-1.1875 4.0075 -1.1875 5.3275 -1.1875 6.6875 C-0.465625 6.3575 0.25625 6.0275 1 5.6875 C3.90368724 4.65507787 5.76635151 4.28669099 8.8125 4.6875 C10.625 5.875 10.625 5.875 11.8125 7.6875 C12.125 10.25 12.125 10.25 11.8125 12.6875 C11.1525 13.3475 10.4925 14.0075 9.8125 14.6875 C7.6875 14.3125 7.6875 14.3125 5.8125 13.6875 C6.4725 12.0375 7.1325 10.3875 7.8125 8.6875 C7.11125 9.0175 6.41 9.3475 5.6875 9.6875 C2.50474674 10.79454461 0.15921266 10.98498557 -3.1875 10.6875 C-5.1875 8.6875 -5.1875 8.6875 -5.5 5.75 C-5.1875 2.6875 -5.1875 2.6875 -3.9375 0.75 C-2.1875 -0.3125 -2.1875 -0.3125 0 0 Z " fill="#E5E8ED" transform="translate(320.1875,210.3125)"/>
<path d="M0 0 C8.44419541 2.00834918 16.72831339 4.37173829 25 7 C24.67 8.32 24.34 9.64 24 11 C15.83600499 9.08927776 7.9153982 6.76477561 0 4 C0 2.68 0 1.36 0 0 Z " fill="#E7EAEE" transform="translate(343,136)"/>
<path d="M0 0 C1.32 0 2.64 0 4 0 C4.19532961 1.7699868 4.38098882 3.54104279 4.5625 5.3125 C4.66691406 6.29863281 4.77132812 7.28476563 4.87890625 8.30078125 C5 11 5 11 4 14 C3.01 14 2.02 14 1 14 C1 13.01 1 12.02 1 11 C-0.98 11 -2.96 11 -5 11 C-4.46949266 6.49068763 -2.8595705 3.51318661 0 0 Z " fill="#2884C1" transform="translate(219,172)"/>
<path d="M0 0 C3.84177074 0.30329769 6.09427672 1.52475424 9 4 C8.67 5.65 8.34 7.3 8 9 C5.31026772 9.74714785 3.48221402 10.1205535 0.75 9.4375 C-1 8 -1 8 -1.875 5 C-1.91625 4.01 -1.9575 3.02 -2 2 C-1.34 1.34 -0.68 0.68 0 0 Z " fill="#2F486B" transform="translate(336,189)"/>
<path d="M0 0 C0.33 1.65 0.66 3.3 1 5 C-3.28629359 8.918897 -3.28629359 8.918897 -6.75 9.3125 C-9 9 -9 9 -10 8 C-10.28792759 5.26468791 -10.34443368 3.58756334 -8.9375 1.1875 C-6.00731249 -0.60842137 -3.3527047 -0.18977574 0 0 Z " fill="#2C4569" transform="translate(61,183)"/>
<path d="M0 0 C3.63068138 0.24032879 5.92491793 1.13105753 9.1796875 2.71875 C10.62988281 3.41484375 10.62988281 3.41484375 12.109375 4.125 C12.83382813 4.4859375 13.55828125 4.846875 14.3046875 5.21875 C13.9746875 6.20875 13.6446875 7.19875 13.3046875 8.21875 C9.5250841 7.70334954 6.68828562 6.91054906 3.3046875 5.21875 C1.9846875 5.21875 0.6646875 5.21875 -0.6953125 5.21875 C-1.3553125 6.20875 -2.0153125 7.19875 -2.6953125 8.21875 C-3.6953125 7.21875 -3.6953125 7.21875 -3.8203125 4.21875 C-3.65689757 0.29679169 -3.65689757 0.29679169 0 0 Z " fill="#E9ECF0" transform="translate(344.6953125,166.78125)"/>
<path d="M0 0 C2.33294775 -0.04241723 4.66702567 -0.04092937 7 0 C8 1 8 1 8.25 3.375 C8 6 8 6 6.625 7.8125 C5 9 5 9 3 9 C3 9.66 3 10.32 3 11 C4.65 11 6.3 11 8 11 C8 11.99 8 12.98 8 14 C5.03 14 2.06 14 -1 14 C-0.51428134 9.62853208 0.83674921 7.9591701 4 5 C4 4.34 4 3.68 4 3 C2.68 3 1.36 3 0 3 C0 2.01 0 1.02 0 0 Z " fill="#2281C0" transform="translate(183,172)"/>
<path d="M0 0 C3.375 -0.125 3.375 -0.125 7 0 C7.66 0.66 8.32 1.32 9 2 C8.875 4.4375 8.875 4.4375 8 7 C5.9375 8.8125 5.9375 8.8125 4 10 C5.32 10.33 6.64 10.66 8 11 C8 11.66 8 12.32 8 13 C5.36 13 2.72 13 0 13 C0.3125 10.625 0.3125 10.625 1 8 C1.99 7.34 2.98 6.68 4 6 C4.72382467 3.94074861 4.72382467 3.94074861 5 2 C3.35 2.33 1.7 2.66 0 3 C0 2.01 0 1.02 0 0 Z " fill="#2E88C3" transform="translate(204,172)"/>
<path d="M0 0 C3.82990706 0.64743667 6.5283898 2.45311237 9.75 4.5625 C11.22726562 5.52349609 11.22726562 5.52349609 12.734375 6.50390625 C13.85585938 7.24447266 13.85585938 7.24447266 15 8 C14.67 9.32 14.34 10.64 14 12 C10.10993227 10.61219205 7.03441292 8.7847773 3.6875 6.375 C2.80449219 5.74335938 1.92148437 5.11171875 1.01171875 4.4609375 C0.34785156 3.97882813 -0.31601562 3.49671875 -1 3 C-0.67 2.01 -0.34 1.02 0 0 Z " fill="#E6E9ED" transform="translate(324,202)"/>
<path d="M0 0 C1.99954746 -0.04254356 4.00041636 -0.04080783 6 0 C7 1 7 1 7.09765625 3.50390625 C7.08605469 4.51324219 7.07445312 5.52257812 7.0625 6.5625 C7.05347656 7.57441406 7.04445312 8.58632812 7.03515625 9.62890625 C7.02355469 10.41136719 7.01195312 11.19382813 7 12 C6.01 11.67 5.02 11.34 4 11 C3.67 8.36 3.34 5.72 3 3 C1.35 3.33 -0.3 3.66 -2 4 C-1.34 2.68 -0.68 1.36 0 0 Z " fill="#2583C1" transform="translate(195,172)"/>
<path d="M0 0 C0.33 0 0.66 0 1 0 C1.33 3.3 1.66 6.6 2 10 C4.64 10 7.28 10 10 10 C10 9.34 10 8.68 10 8 C8.35 8 6.7 8 5 8 C6.65 6.35 8.3 4.7 10 3 C10.99 3.33 11.98 3.66 13 4 C12.34 6.31 11.68 8.62 11 11 C7.7 11 4.4 11 1 11 C-0.28317892 7.15046324 -0.06643637 4.05261865 0 0 Z " fill="#B6D5EA" transform="translate(202,175)"/>
<path d="M0 0 C6.38342541 0.60220994 6.38342541 0.60220994 8.9375 2.25 C10.35440053 4.58371852 10.21718696 6.32136078 10 9 C9.01 9.495 9.01 9.495 8 10 C7.814375 9.401875 7.62875 8.80375 7.4375 8.1875 C5.27726247 4.90018201 2.64892345 4.35145313 -1 3 C-0.67 2.01 -0.34 1.02 0 0 Z " fill="#F2F3F6" transform="translate(337,186)"/>
<path d="M0 0 C0.33 0 0.66 0 1 0 C1.33 1.65 1.66 3.3 2 5 C5.62885324 5.15149298 5.62885324 5.15149298 9 4 C8.67 5.98 8.34 7.96 8 10 C5.125 10.125 5.125 10.125 2 10 C0 8 0 8 -0.1953125 6.0546875 C-0.13020833 4.03645833 -0.06510417 2.01822917 0 0 Z " fill="#EFF1F4" transform="translate(354,155)"/>
<path d="M0 0 C0.99 0.33 1.98 0.66 3 1 C2.67 1.66 2.34 2.32 2 3 C3.65 3 5.3 3 7 3 C7 3.99 7 4.98 7 6 C4.03 6 1.06 6 -2 6 C-1.125 1.125 -1.125 1.125 0 0 Z " fill="#3089C3" transform="translate(184,180)"/>
<path d="M0 0 C0.33 0.66 0.66 1.32 1 2 C2.65 1.67 4.3 1.34 6 1 C5.8125 3.3125 5.8125 3.3125 5 6 C2.4375 7.8125 2.4375 7.8125 0 9 C-0.87890625 2.84765625 -0.87890625 2.84765625 -1 1 C-0.67 0.67 -0.34 0.34 0 0 Z " fill="#EEF5FA" transform="translate(203,173)"/>
<path d="M0 0 C-0.99 0.66 -1.98 1.32 -3 2 C-4.07136051 4.30144109 -5.07989717 6.6340213 -6 9 C-6.66 8.34 -7.32 7.68 -8 7 C-8.66 7.99 -9.32 8.98 -10 10 C-9.68657358 6.55230934 -9.32465015 4.44059663 -7.25 1.625 C-4.58988985 -0.29619066 -3.20935531 -0.35659503 0 0 Z " fill="#D0D5DD" transform="translate(340,185)"/>
<path d="M0 0 C-0.33 0.66 -0.66 1.32 -1 2 C-3.3140622 2.73075648 -5.64828869 3.40138258 -8 4 C-8 3.34 -8 2.68 -8 2 C-11.3 2 -14.6 2 -18 2 C-18 1.67 -18 1.34 -18 1 C-11.93303301 0.22959149 -6.11485027 -0.09706112 0 0 Z " fill="#506583" transform="translate(55,167)"/>
<path d="M0 0 C-0.33 0.99 -0.66 1.98 -1 3 C-4.0625 4.1875 -4.0625 4.1875 -7 5 C-7.33 3.68 -7.66 2.36 -8 1 C-3.375 -1.125 -3.375 -1.125 0 0 Z " fill="#E4E7EB" transform="translate(48,173)"/>
<path d="M0 0 C1.32 0.33 2.64 0.66 4 1 C4.33 2.65 4.66 4.3 5 6 C3.35 6 1.7 6 0 6 C0 4.02 0 2.04 0 0 Z " fill="#3F5677" transform="translate(356,155)"/>
<path d="M0 0 C0.598125 0.226875 1.19625 0.45375 1.8125 0.6875 C1.4825 1.3475 1.1525 2.0075 0.8125 2.6875 C0.1525 2.6875 -0.5075 2.6875 -1.1875 2.6875 C-1.5175 4.0075 -1.8475 5.3275 -2.1875 6.6875 C-2.5175 6.0275 -2.8475 5.3675 -3.1875 4.6875 C-3.8475 6.0075 -4.5075 7.3275 -5.1875 8.6875 C-5.55003776 3.24943353 -5.55003776 3.24943353 -3.9375 0.75 C-2.1875 -0.3125 -2.1875 -0.3125 0 0 Z " fill="#D2D7DF" transform="translate(320.1875,210.3125)"/>
<path d="M0 0 C0.66 0.33 1.32 0.66 2 1 C2 3.64 2 6.28 2 9 C1.01 9 0.02 9 -1 9 C-1.09765625 2.84765625 -1.09765625 2.84765625 -1 1 C-0.67 0.67 -0.34 0.34 0 0 Z " fill="#ECF4F9" transform="translate(197,174)"/>
<path d="M0 0 C0.99 0.33 1.98 0.66 3 1 C2.67 2.65 2.34 4.3 2 6 C0.68 6 -0.64 6 -2 6 C-1.34 4.02 -0.68 2.04 0 0 Z " fill="#E6E9ED" transform="translate(97,219)"/>
<path d="M0 0 C0.33 0.66 0.66 1.32 1 2 C2.65 2 4.3 2 6 2 C6 2.66 6 3.32 6 4 C3.36 4 0.72 4 -2 4 C-1.34 2.68 -0.68 1.36 0 0 Z " fill="#1479BC" transform="translate(206,181)"/>
<path d="M0 0 C0.66 0.33 1.32 0.66 2 1 C-1.465 3.97 -1.465 3.97 -5 7 C-5 5.35 -5 3.7 -5 2 C-2.625 0.9375 -2.625 0.9375 0 0 Z " fill="#526785" transform="translate(48,153)"/>
<path d="M0 0 C2 2 2 2 2.125 4.625 C2.08375 5.40875 2.0425 6.1925 2 7 C1.01 7 0.02 7 -1 7 C-1.625 5.1875 -1.625 5.1875 -2 3 C-1.34 2.01 -0.68 1.02 0 0 Z " fill="#61A5D1" transform="translate(218,174)"/>
</svg>
