<svg version="1.1" id="Layer_1" xmlns="http://www.w3.org/2000/svg" xmlns:xlink="http://www.w3.org/1999/xlink" x="0px" y="0px"
	 width="100%" viewBox="0 0 1202 672" enable-background="new 0 0 1202 672" xml:space="preserve">
<path fill="#000000" opacity="1.000000" stroke="none" 
	d="
M1203.000000,670.000000 
	C1203.000000,670.999390 1203.000000,671.998718 1203.000000,672.999023 
	C978.640808,673.000000 754.281677,673.000000 529.070312,672.736450 
	C529.500122,671.902039 530.730347,671.119629 532.071777,670.791321 
	C563.521729,663.094482 585.440857,644.387573 596.781250,613.982239 
	C602.868835,597.660645 603.336304,580.606262 600.980591,563.479797 
	C596.760620,532.800049 580.611816,510.118713 553.311829,496.115509 
	C530.245789,484.284027 505.501831,483.214020 480.462311,488.940552 
	C453.405304,495.128479 433.617889,510.869476 421.066132,535.542603 
	C411.084961,555.162598 409.333649,576.046021 412.547394,597.523254 
	C414.995941,613.886841 421.295410,628.668396 432.122070,641.193420 
	C445.724884,656.930115 462.711090,667.173096 483.356079,671.007629 
	C484.005035,671.128174 484.456482,672.311951 485.000000,673.000000 
	C325.000000,673.000000 165.000015,673.005676 5.000098,672.897156 
	C3.747557,672.896301 0.685176,674.963013 1.468524,670.487854 
	C14.496231,669.975708 27.055414,669.975708 40.185162,669.975708 
	C40.185162,648.214294 40.185162,627.161682 40.638832,606.067505 
	C52.468983,605.653931 64.094231,606.636719 75.165710,604.603760 
	C93.405777,601.254517 106.517448,590.381165 113.958977,572.888855 
	C118.739311,561.651978 119.201065,550.075745 117.761421,538.367737 
	C116.116051,524.986694 110.164345,513.360474 100.228920,504.291382 
	C89.967911,494.925140 77.276436,490.526306 63.526932,490.256256 
	C43.061272,489.854370 22.581993,490.145782 1.833183,490.092560 
	C1.371905,490.028656 1.185952,490.014313 1.000000,490.000000 
	C1.000000,327.063965 1.000000,164.127914 1.000000,1.000000 
	C196.692459,1.000000 392.384979,1.000000 588.926147,1.227831 
	C589.184448,1.988395 588.682312,2.780500 587.990784,3.015772 
	C572.501282,8.285535 562.568237,19.463060 554.982422,33.395699 
	C548.907410,44.553432 545.191711,56.420509 542.959595,68.840614 
	C542.478455,71.517822 541.705750,73.655624 538.210083,74.057564 
	C510.566925,77.236008 483.645508,83.717697 457.138031,92.067856 
	C414.904114,105.372047 375.337128,124.260109 338.264862,148.453278 
	C316.259888,162.813599 296.021301,179.424118 276.180054,196.567642 
	C273.566650,198.825714 273.991577,200.372025 276.288788,202.560608 
	C286.809937,212.584320 298.093994,221.478180 310.566345,229.081131 
	C343.474030,249.141174 378.649170,259.075531 417.356140,255.022736 
	C433.582123,253.323792 449.170502,249.363968 464.102570,242.804672 
	C468.634186,240.814056 473.162415,238.815674 478.759125,236.350998 
	C471.982269,254.930038 465.699371,272.248596 459.345947,289.541260 
	C454.814758,301.874176 455.027863,313.842712 462.241455,325.135162 
	C470.207642,337.605743 482.011475,342.663788 496.475342,341.965515 
	C509.890778,341.317871 520.950989,335.473785 526.418884,323.288452 
	C533.822937,306.788269 539.502136,289.513428 545.900940,272.563202 
	C547.704102,267.786682 549.435608,262.983093 551.684875,256.875122 
	C552.375610,259.634827 552.781860,260.876526 552.990540,262.150574 
	C555.206421,275.682953 557.136108,289.267883 559.642761,302.745697 
	C563.591370,323.976654 567.705200,345.182770 572.210510,366.300964 
	C573.752197,373.527252 574.284485,381.242157 579.778137,387.249725 
	C588.468201,396.752747 599.582092,397.122192 610.890259,395.355042 
	C621.663086,393.671570 627.572876,386.271454 629.924927,375.896606 
	C631.128784,370.586670 632.285522,365.263672 633.330750,359.920563 
	C637.575378,338.222717 641.863586,316.532684 645.943359,294.803650 
	C648.212280,282.719299 650.102417,270.563843 652.305603,257.603027 
	C653.150513,259.195526 653.708252,260.002930 654.033142,260.895172 
	C660.577820,278.868378 667.438110,296.736237 673.531311,314.861816 
	C680.931580,336.875214 700.716919,346.084778 721.371460,340.675629 
	C741.148193,335.496399 752.108398,314.100983 746.680847,295.591187 
	C742.974182,282.950195 737.935669,270.699402 733.482910,258.277618 
	C730.964478,251.251953 728.426453,244.233322 725.959045,237.383179 
	C737.672913,241.685760 748.895813,246.403259 760.479126,249.940521 
	C785.728027,257.650909 811.369629,257.777466 837.092957,252.272034 
	C857.486389,247.907379 876.591858,240.062714 893.899109,228.626007 
	C905.809448,220.755585 916.577942,211.156265 927.846680,202.316681 
	C930.592529,200.162766 930.004333,198.375519 927.424683,196.406204 
	C923.768066,193.614746 920.406189,190.439682 916.781433,187.603638 
	C902.044861,176.073654 887.654846,164.047165 872.398193,153.247528 
	C845.892212,134.484894 817.287598,119.403999 787.280090,106.912399 
	C748.182495,90.636749 707.794678,79.295387 665.747437,74.010109 
	C663.315857,73.704445 662.309326,72.745583 661.652283,70.131371 
	C659.367188,61.039528 657.260376,51.797352 653.791077,43.130611 
	C646.530273,24.992313 635.493774,9.988824 616.089722,3.040765 
	C615.551880,2.848166 615.355530,1.701694 615.000000,1.000007 
	C810.923035,1.000000 1006.846130,1.000000 1203.000000,1.000000 
	C1203.000000,163.692429 1203.000000,326.384949 1202.532959,489.582062 
	C1187.076294,490.062012 1172.085571,490.120270 1157.097778,489.941467 
	C1154.166260,489.906494 1152.641357,491.011353 1151.247192,493.420349 
	C1145.503662,503.344910 1139.601562,513.178101 1133.717285,523.020630 
	C1131.000977,527.564026 1128.191528,532.051697 1124.859131,537.486389 
	C1123.894287,535.924133 1123.521851,535.367126 1123.194824,534.784729 
	C1115.462891,521.017700 1107.656128,507.291595 1100.082153,493.438202 
	C1098.730103,490.965302 1097.418091,489.831024 1094.490479,489.935913 
	C1087.836548,490.174286 1081.168335,490.010925 1074.505859,490.010895 
	C1065.755249,490.010895 1057.004639,490.010925 1047.634521,490.010925 
	C1048.383179,491.906891 1048.682739,493.190338 1049.341675,494.250366 
	C1054.027710,501.788727 1058.782715,509.284271 1063.524048,516.788147 
	C1075.018921,534.980103 1086.497681,553.182495 1098.041138,571.343567 
	C1099.593140,573.785522 1099.622559,575.492126 1097.821655,578.166931 
	C1078.521606,606.832092 1059.454468,635.654114 1040.344971,664.447388 
	C1039.396362,665.876953 1038.646484,667.438416 1037.790283,668.962830 
	C1038.641235,669.401672 1038.911255,669.662354 1039.182007,669.663269 
	C1054.837158,669.715637 1070.492798,669.801880 1086.146606,669.674255 
	C1087.401489,669.664062 1089.058105,668.444824 1089.822388,667.311584 
	C1093.484497,661.881775 1096.904785,656.288818 1100.408936,650.752502 
	C1108.442749,638.059998 1116.475098,625.366638 1124.807129,612.200928 
	C1125.540649,613.206726 1125.926147,613.658630 1126.228271,614.160706 
	C1136.496948,631.220642 1146.873047,648.217896 1156.917847,665.408813 
	C1158.833374,668.687195 1160.743042,669.926941 1164.551025,669.869812 
	C1177.363770,669.677368 1190.183105,669.922302 1203.000000,670.000000 
M379.807678,626.619690 
	C372.413330,616.545288 365.018982,606.470886 357.770966,596.595886 
	C358.581055,595.713318 358.670685,595.540039 358.810272,595.476685 
	C359.404785,595.206482 360.013489,594.967407 360.618073,594.719543 
	C374.166748,589.164978 383.613159,579.592651 388.694702,565.837402 
	C392.721588,554.936951 393.033295,543.664124 390.623413,532.488953 
	C387.855988,519.655701 381.357117,508.921387 370.387543,501.222778 
	C359.133392,493.324524 346.339081,490.333069 332.914093,490.097504 
	C314.595062,489.776031 296.266449,489.991852 277.941956,490.005280 
	C276.682678,490.006195 275.423553,490.239532 274.352051,490.346100 
	C274.352051,550.299377 274.352051,609.843628 274.352051,669.638733 
	C287.968842,669.638733 301.222504,669.638733 315.092987,669.638733 
	C315.092987,648.434631 315.092987,627.458252 315.092987,605.271423 
	C316.722015,607.735718 317.600922,609.075439 318.489868,610.408386 
	C330.953491,629.096985 343.387024,647.805786 355.944397,666.431213 
	C356.921783,667.880920 358.754364,669.712280 360.212646,669.733032 
	C376.686279,669.966797 393.164490,669.881104 411.205475,669.881104 
	C401.404480,654.347107 390.122314,641.252869 379.807678,626.619690 
M200.501251,631.987671 
	C194.715714,631.987671 188.930191,631.987671 183.085052,631.987671 
	C183.085052,619.064514 183.085052,606.691895 183.085052,593.846863 
	C202.529297,593.846863 221.606735,593.846863 240.667603,593.846863 
	C240.667603,581.138428 240.667603,568.911072 240.667603,556.140137 
	C221.258759,556.140137 202.187271,556.140137 183.004822,556.140137 
	C183.004822,546.515076 183.004822,537.441162 183.004822,527.808167 
	C203.357880,527.808167 223.427750,527.808167 243.583252,527.808167 
	C243.583252,514.875916 243.583252,502.510101 243.583252,490.341003 
	C208.931122,490.341003 174.679306,490.341003 140.469788,490.341003 
	C140.469788,550.252563 140.469788,609.810059 140.469788,669.408081 
	C175.088089,669.408081 209.339325,669.408081 243.690308,669.408081 
	C243.690308,656.845764 243.690308,644.605225 243.690308,631.987671 
	C229.434235,631.987671 215.467422,631.987671 200.501251,631.987671 
M623.017395,630.500000 
	C623.017395,643.431824 623.017395,656.363647 623.017395,669.475952 
	C637.562744,669.475952 651.476013,669.475952 665.879089,669.475952 
	C665.879089,648.316101 665.879089,627.412964 665.879089,605.977966 
	C676.065552,605.977966 685.800049,606.501526 695.456116,605.853943 
	C709.542114,604.909302 721.550049,598.551392 730.842102,588.200623 
	C743.976624,573.569397 746.621643,555.322327 743.433289,536.983459 
	C738.592529,509.139801 719.020142,491.708130 690.635132,490.412842 
	C668.523560,489.403900 646.332092,490.145874 624.176086,490.133667 
	C623.906494,490.133545 623.636780,490.451385 623.017029,490.840698 
	C623.017029,536.920288 623.017029,583.210144 623.017395,630.500000 
M1039.279663,490.014954 
	C1025.955444,490.015045 1012.630615,490.076782 999.307251,489.964996 
	C996.527649,489.941681 994.848938,490.697632 993.360840,493.256744 
	C988.670227,501.323456 983.617676,509.179779 978.702637,517.116028 
	C973.110962,526.144897 967.516602,535.172058 961.788269,544.417969 
	C960.020996,541.567322 958.538940,539.201111 957.080444,536.820374 
	C948.232605,522.378601 939.435547,507.905151 930.477661,493.531921 
	C929.559387,492.058685 927.704773,490.196350 926.258972,490.173981 
	C910.622559,489.932281 894.981018,490.023132 878.585083,490.023132 
	C879.258789,491.846100 879.524414,493.271851 880.244507,494.410187 
	C899.312866,524.552856 918.480957,554.632751 937.437988,584.845032 
	C939.002625,587.338623 939.882996,590.690491 939.907898,593.653381 
	C940.104736,617.135864 940.017090,640.620728 940.016785,664.104858 
	C940.016785,665.860840 940.016785,667.616821 940.016785,669.480347 
	C954.310425,669.480347 967.895203,669.480347 982.011841,669.480347 
	C982.011841,667.444580 982.011841,665.662903 982.011841,663.881226 
	C982.011597,641.063293 982.109863,618.244629 981.921692,595.428223 
	C981.887146,591.244019 982.902588,587.722656 985.120667,584.318359 
	C1002.656555,557.404602 1020.168884,530.475647 1037.659912,503.532745 
	C1040.367920,499.361450 1042.930420,495.095764 1046.094971,490.014954 
	C1043.173584,490.014954 1041.694214,490.014954 1039.279663,490.014954 
M794.133850,529.696167 
	C794.133850,576.281860 794.133850,622.867554 794.133850,669.561279 
	C808.666443,669.561279 822.577271,669.561279 837.077881,669.561279 
	C837.077881,622.258179 837.077881,575.229919 837.077881,527.657227 
	C850.054199,527.657227 862.444824,527.657227 874.655334,527.657227 
	C874.655334,514.854919 874.655334,502.605316 874.655334,490.264587 
	C835.059143,490.264587 795.817932,490.264587 756.446045,490.264587 
	C756.446045,502.888275 756.446045,515.254456 756.446045,527.939148 
	C766.297668,527.939148 775.775146,527.877747 785.250977,527.975830 
	C788.164307,528.006042 791.073181,528.472290 794.133850,529.696167 
z"/>
<path fill="#E66460" opacity="1.000000" stroke="none" 
	d="
M614.531372,1.000007 
	C615.355530,1.701694 615.551880,2.848166 616.089722,3.040765 
	C635.493774,9.988824 646.530273,24.992313 653.791077,43.130611 
	C657.260376,51.797352 659.367188,61.039528 661.652283,70.131371 
	C662.309326,72.745583 663.315857,73.704445 665.747437,74.010109 
	C707.794678,79.295387 748.182495,90.636749 787.280090,106.912399 
	C817.287598,119.403999 845.892212,134.484894 872.398193,153.247528 
	C887.654846,164.047165 902.044861,176.073654 916.781433,187.603638 
	C920.406189,190.439682 923.768066,193.614746 927.424683,196.406204 
	C930.004333,198.375519 930.592529,200.162766 927.846680,202.316681 
	C916.577942,211.156265 905.809448,220.755585 893.899109,228.626007 
	C876.591858,240.062714 857.486389,247.907379 837.092957,252.272034 
	C811.369629,257.777466 785.728027,257.650909 760.479126,249.940521 
	C748.895813,246.403259 737.672913,241.685760 725.959045,237.383179 
	C728.426453,244.233322 730.964478,251.251953 733.482910,258.277618 
	C737.935669,270.699402 742.974182,282.950195 746.680847,295.591187 
	C752.108398,314.100983 741.148193,335.496399 721.371460,340.675629 
	C700.716919,346.084778 680.931580,336.875214 673.531311,314.861816 
	C667.438110,296.736237 660.577820,278.868378 654.033142,260.895172 
	C653.708252,260.002930 653.150513,259.195526 652.305603,257.603027 
	C650.102417,270.563843 648.212280,282.719299 645.943359,294.803650 
	C641.863586,316.532684 637.575378,338.222717 633.330750,359.920563 
	C632.285522,365.263672 631.128784,370.586670 629.924927,375.896606 
	C627.572876,386.271454 621.663086,393.671570 610.890259,395.355042 
	C599.582092,397.122192 588.468201,396.752747 579.778137,387.249725 
	C574.284485,381.242157 573.752197,373.527252 572.210510,366.300964 
	C567.705200,345.182770 563.591370,323.976654 559.642761,302.745697 
	C557.136108,289.267883 555.206421,275.682953 552.990540,262.150574 
	C552.781860,260.876526 552.375610,259.634827 551.684875,256.875122 
	C549.435608,262.983093 547.704102,267.786682 545.900940,272.563202 
	C539.502136,289.513428 533.822937,306.788269 526.418884,323.288452 
	C520.950989,335.473785 509.890778,341.317871 496.475342,341.965515 
	C482.011475,342.663788 470.207642,337.605743 462.241455,325.135162 
	C455.027863,313.842712 454.814758,301.874176 459.345947,289.541260 
	C465.699371,272.248596 471.982269,254.930038 478.759125,236.350998 
	C473.162415,238.815674 468.634186,240.814056 464.102570,242.804672 
	C449.170502,249.363968 433.582123,253.323792 417.356140,255.022736 
	C378.649170,259.075531 343.474030,249.141174 310.566345,229.081131 
	C298.093994,221.478180 286.809937,212.584320 276.288788,202.560608 
	C273.991577,200.372025 273.566650,198.825714 276.180054,196.567642 
	C296.021301,179.424118 316.259888,162.813599 338.264862,148.453278 
	C375.337128,124.260109 414.904114,105.372047 457.138031,92.067856 
	C483.645508,83.717697 510.566925,77.236008 538.210083,74.057564 
	C541.705750,73.655624 542.478455,71.517822 542.959595,68.840614 
	C545.191711,56.420509 548.907410,44.553432 554.982422,33.395699 
	C562.568237,19.463060 572.501282,8.285535 587.990784,3.015772 
	C588.682312,2.780500 589.184448,1.988395 589.387390,1.227831 
	C597.354248,1.000000 605.708496,1.000000 614.531372,1.000007 
M684.648987,182.318024 
	C685.032104,182.458862 685.415222,182.599701 685.798340,182.740524 
	C685.599609,182.096115 685.400940,181.451691 685.206970,180.050003 
	C678.827454,162.510391 672.447937,144.970779 666.068420,127.431152 
	C664.920227,137.344086 664.373413,147.032074 664.064331,156.727661 
	C664.016418,158.231720 664.667480,160.111969 665.656372,161.237411 
	C671.762634,168.187057 678.058411,174.970276 684.648987,182.318024 
M520.239075,181.461563 
	C525.226257,176.162140 530.357178,170.987976 535.133728,165.505066 
	C537.204041,163.128571 539.928528,160.136124 539.968567,157.388687 
	C540.116577,147.230377 539.268433,137.057571 538.728760,125.476738 
	C536.095642,132.565628 533.888794,138.334610 531.806580,144.148224 
	C527.434204,156.355896 523.127258,168.587021 518.252197,181.135590 
	C518.252258,181.707565 518.252380,182.279541 518.252502,182.851517 
	C518.727905,182.513962 519.203369,182.176407 520.239075,181.461563 
M304.847656,203.634262 
	C306.972595,205.169830 309.080200,206.730042 311.225250,208.237000 
	C325.747925,218.439636 341.562103,225.933990 358.409149,231.521103 
	C378.041931,238.032059 398.038696,240.646301 418.514801,237.751923 
	C438.973145,234.860046 458.251465,228.200287 475.789642,217.135696 
	C481.860382,213.305740 488.601807,210.553558 491.426605,202.387360 
	C499.712860,178.432571 508.905426,154.792175 517.662354,130.998962 
	C522.246033,118.544754 526.660706,106.028358 531.383545,92.895332 
	C444.106110,107.453598 367.321136,142.758911 300.221222,200.248978 
	C301.937012,201.457748 303.124084,202.294022 304.847656,203.634262 
M699.819824,166.595154 
	C703.863098,177.764282 707.754150,188.992065 712.027893,200.072327 
	C713.632446,204.232468 714.535645,208.869858 719.387085,211.283722 
	C730.980774,217.052216 742.003723,224.131897 753.939392,229.013992 
	C776.775940,238.354919 800.644592,240.316422 825.090454,236.350266 
	C846.991760,232.796967 866.705566,223.833054 885.596252,212.801056 
	C891.883545,209.129364 897.550720,204.395615 903.925049,199.844925 
	C836.246399,142.369659 759.694458,107.002464 672.563782,92.559860 
	C676.225281,102.597290 679.510620,111.732597 682.888367,120.833611 
	C688.458069,135.840668 694.087524,150.825592 699.819824,166.595154 
M621.073242,328.500854 
	C625.589783,303.539734 630.106262,278.578613 634.680664,253.297638 
	C612.510193,253.297638 591.271606,253.297638 569.724854,253.297638 
	C569.943420,255.415695 570.033447,257.234253 570.331116,259.018127 
	C572.124329,269.764038 573.740662,280.546021 575.834229,291.234039 
	C581.093384,318.082550 586.535156,344.895599 592.008179,371.701538 
	C592.907288,376.105316 596.898560,378.212311 602.901672,378.005280 
	C608.448486,377.813995 611.067444,375.691406 612.074036,370.929810 
	C615.005432,357.063202 618.023071,343.214844 621.073242,328.500854 
M689.999878,307.314148 
	C692.195007,311.317505 693.518066,316.337128 696.760681,319.119781 
	C704.296143,325.586243 711.506592,327.196136 721.893555,320.276947 
	C729.245850,315.379272 731.848328,307.009766 728.442017,297.606903 
	C719.133789,271.912201 709.651672,246.280350 700.192078,220.640701 
	C699.818909,219.629242 699.125427,218.619400 698.319946,217.902145 
	C690.934875,211.326019 683.320679,204.996658 676.127686,198.219193 
	C671.511719,193.869934 667.491516,188.888519 662.671021,183.606216 
	C661.666931,185.861359 661.142334,186.556625 661.059570,187.301056 
	C660.328979,193.869171 659.441162,200.432938 659.074646,207.024353 
	C658.768066,212.537247 657.656372,218.589661 659.385254,223.534668 
	C669.110779,251.352539 679.587830,278.907684 689.999878,307.314148 
M523.261230,281.723145 
	C529.231384,265.516388 535.304138,249.346298 541.115906,233.082932 
	C543.143921,227.407883 545.948486,221.489746 545.895569,215.705521 
	C545.800171,205.273514 543.818970,194.858749 542.598206,184.199478 
	C541.948181,184.603775 541.500122,184.786469 541.175964,185.098053 
	C531.899414,194.014771 522.759094,203.078079 513.320923,211.819870 
	C508.000397,216.747803 501.976685,220.951401 500.686737,228.853027 
	C500.400116,230.608795 499.471039,232.258072 498.851410,233.961334 
	C490.811523,256.061920 482.679535,278.129761 474.794373,300.285400 
	C472.468170,306.821472 476.000092,316.167389 481.615173,320.039032 
	C493.846802,328.472809 508.025970,323.894104 513.138733,309.852478 
	C516.458801,300.734314 519.765259,291.611176 523.261230,281.723145 
M572.805664,199.391129 
	C572.463867,200.320206 572.132935,201.253433 571.778625,202.177719 
	C567.744019,212.702881 562.168518,223.022186 567.753540,234.935547 
	C590.510864,234.935547 613.578125,234.935547 636.586182,234.935547 
	C638.114868,227.065491 639.939758,219.495224 636.107056,212.035660 
	C635.354919,210.571747 634.766418,209.014923 634.201660,207.464813 
	C625.115234,182.525024 616.063354,157.572586 606.950623,132.642426 
	C605.591614,128.924377 603.963318,125.304741 602.459595,121.639572 
	C602.063171,121.692947 601.666809,121.746323 601.270386,121.799698 
	C591.838013,147.406433 582.405640,173.013168 572.805664,199.391129 
M581.549866,70.006912 
	C602.001587,70.006912 622.453369,70.006912 642.848694,70.006912 
	C640.850952,56.034760 633.327820,36.775810 620.899536,26.138239 
	C608.215088,15.281409 596.068542,15.839315 584.216492,25.233627 
	C571.978210,34.934071 566.078857,48.848564 561.999695,63.541695 
	C561.361145,65.841843 561.179016,68.268700 560.679871,71.274918 
	C567.732788,70.840225 574.152405,70.444572 581.549866,70.006912 
M556.766785,121.750122 
	C556.766785,126.319565 556.766785,130.889008 556.766785,135.458450 
	C557.237854,135.604950 557.708862,135.751434 558.179932,135.897934 
	C566.242126,123.169952 574.304321,110.441971 582.740356,97.123878 
	C573.986328,94.630547 566.911926,89.638649 556.767212,89.827690 
	C556.767212,100.479607 556.767212,110.651497 556.766785,121.750122 
M625.310730,103.041130 
	C632.177124,113.909332 639.043518,124.777527 646.306519,136.273468 
	C646.306519,120.140533 646.306519,105.056732 646.306519,88.386345 
	C639.033691,90.946548 633.131653,93.263954 627.079041,95.079514 
	C622.176697,96.550041 621.810730,98.818268 625.310730,103.041130 
M564.669861,169.093964 
	C567.204346,162.214111 569.738892,155.334274 572.273376,148.454422 
	C564.125000,157.204269 554.632263,165.462906 560.945007,179.228928 
	C562.028198,176.199677 563.172241,173.000397 564.669861,169.093964 
M639.151123,156.343338 
	C637.284790,153.901428 635.418457,151.459518 633.552124,149.017593 
	C633.123169,149.269592 632.694214,149.521591 632.265198,149.773590 
	C635.807129,159.412964 639.348999,169.052353 642.890930,178.691727 
	C644.769531,163.681076 644.769531,163.681076 639.151123,156.343338 
M631.269165,148.670822 
	C631.783386,148.937134 632.297607,149.203445 632.811829,149.469772 
	C632.844604,148.896912 632.877441,148.324036 632.910217,147.751175 
	C632.325012,147.771591 631.739746,147.792007 631.269165,148.670822 
z"/>
<path fill="#E96560" opacity="1.000000" stroke="none" 
	d="
M485.468658,673.000000 
	C484.456482,672.311951 484.005035,671.128174 483.356079,671.007629 
	C462.711090,667.173096 445.724884,656.930115 432.122070,641.193420 
	C421.295410,628.668396 414.995941,613.886841 412.547394,597.523254 
	C409.333649,576.046021 411.084961,555.162598 421.066132,535.542603 
	C433.617889,510.869476 453.405304,495.128479 480.462311,488.940552 
	C505.501831,483.214020 530.245789,484.284027 553.311829,496.115509 
	C580.611816,510.118713 596.760620,532.800049 600.980591,563.479797 
	C603.336304,580.606262 602.868835,597.660645 596.781250,613.982239 
	C585.440857,644.387573 563.521729,663.094482 532.071777,670.791321 
	C530.730347,671.119629 529.500122,671.902039 528.609009,672.736450 
	C514.645752,673.000000 500.291534,673.000000 485.468658,673.000000 
M558.033020,569.792603 
	C555.841248,563.437744 554.699524,556.440002 551.271729,550.842041 
	C538.085022,529.306641 520.391541,523.538025 497.163147,526.190247 
	C487.962524,527.240662 479.519684,531.254333 472.402557,537.695801 
	C458.015564,550.717224 453.040283,567.007751 454.708679,585.922241 
	C457.239471,614.613464 477.666565,633.844360 506.354828,634.191162 
	C525.352112,634.420776 540.173462,626.615967 550.405579,610.572510 
	C558.206482,598.341125 560.171509,584.864685 558.033020,569.792603 
z"/>
<path fill="#E86460" opacity="1.000000" stroke="none" 
	d="
M1203.000000,669.533081 
	C1190.183105,669.922302 1177.363770,669.677368 1164.551025,669.869812 
	C1160.743042,669.926941 1158.833374,668.687195 1156.917847,665.408813 
	C1146.873047,648.217896 1136.496948,631.220642 1126.228271,614.160706 
	C1125.926147,613.658630 1125.540649,613.206726 1124.807129,612.200928 
	C1116.475098,625.366638 1108.442749,638.059998 1100.408936,650.752502 
	C1096.904785,656.288818 1093.484497,661.881775 1089.822388,667.311584 
	C1089.058105,668.444824 1087.401489,669.664062 1086.146606,669.674255 
	C1070.492798,669.801880 1054.837158,669.715637 1039.182007,669.663269 
	C1038.911255,669.662354 1038.641235,669.401672 1037.790283,668.962830 
	C1038.646484,667.438416 1039.396362,665.876953 1040.344971,664.447388 
	C1059.454468,635.654114 1078.521606,606.832092 1097.821655,578.166931 
	C1099.622559,575.492126 1099.593140,573.785522 1098.041138,571.343567 
	C1086.497681,553.182495 1075.018921,534.980103 1063.524048,516.788147 
	C1058.782715,509.284271 1054.027710,501.788727 1049.341675,494.250366 
	C1048.682739,493.190338 1048.383179,491.906891 1047.634521,490.010925 
	C1057.004639,490.010925 1065.755249,490.010895 1074.505859,490.010895 
	C1081.168335,490.010925 1087.836548,490.174286 1094.490479,489.935913 
	C1097.418091,489.831024 1098.730103,490.965302 1100.082153,493.438202 
	C1107.656128,507.291595 1115.462891,521.017700 1123.194824,534.784729 
	C1123.521851,535.367126 1123.894287,535.924133 1124.859131,537.486389 
	C1128.191528,532.051697 1131.000977,527.564026 1133.717285,523.020630 
	C1139.601562,513.178101 1145.503662,503.344910 1151.247192,493.420349 
	C1152.641357,491.011353 1154.166260,489.906494 1157.097778,489.941467 
	C1172.085571,490.120270 1187.076294,490.062012 1202.532959,490.043335 
	C1203.000000,491.714355 1203.000000,493.428711 1202.819580,495.173218 
	C1201.714111,496.097046 1200.585205,496.856842 1199.896484,497.905640 
	C1194.681641,505.847443 1189.567749,513.855530 1184.394287,521.824768 
	C1172.901001,539.529419 1161.391357,557.223450 1149.793091,575.068420 
	C1166.460449,600.781189 1183.084229,626.460266 1199.799194,652.079956 
	C1200.410645,653.017151 1201.912842,653.373108 1203.000000,654.000000 
	C1203.000000,659.022095 1203.000000,664.044189 1203.000000,669.533081 
z"/>
<path fill="#000000" opacity="1.000000" stroke="none" 
	d="
M1203.000000,653.531372 
	C1201.912842,653.373108 1200.410645,653.017151 1199.799194,652.079956 
	C1183.084229,626.460266 1166.460449,600.781189 1149.793091,575.068420 
	C1161.391357,557.223450 1172.901001,539.529419 1184.394287,521.824768 
	C1189.567749,513.855530 1194.681641,505.847443 1199.896484,497.905640 
	C1200.585205,496.856842 1201.714111,496.097046 1202.819580,495.601685 
	C1203.000000,548.354248 1203.000000,600.708435 1203.000000,653.531372 
z"/>
<path fill="#8F4F5A" opacity="1.000000" stroke="none" 
	d="
M40.185165,606.109131 
	C40.185162,627.161682 40.185162,648.214294 40.185162,669.975708 
	C27.055414,669.975708 14.496231,669.975708 1.468524,669.987854 
	C1.000000,610.312439 1.000000,550.624878 1.000000,490.468658 
	C1.185952,490.014313 1.371905,490.028656 1.810903,490.552246 
	C2.053538,548.496887 2.085358,605.932434 1.948629,663.367554 
	C1.938239,667.732239 3.191516,669.211670 7.609697,669.056335 
	C16.255970,668.752441 24.927650,668.756775 33.574421,669.053223 
	C38.029083,669.205933 39.300652,667.593872 39.252472,663.293152 
	C39.062252,646.314392 39.140949,629.331970 39.220741,612.351440 
	C39.230530,610.269226 39.848850,608.189819 40.185165,606.109131 
z"/>
<path fill="#EA6560" opacity="1.000000" stroke="none" 
	d="
M380.058777,626.880981 
	C390.122314,641.252869 401.404480,654.347107 411.205475,669.881104 
	C393.164490,669.881104 376.686279,669.966797 360.212646,669.733032 
	C358.754364,669.712280 356.921783,667.880920 355.944397,666.431213 
	C343.387024,647.805786 330.953491,629.096985 318.489868,610.408386 
	C317.600922,609.075439 316.722015,607.735718 315.092987,605.271423 
	C315.092987,627.458252 315.092987,648.434631 315.092987,669.638733 
	C301.222504,669.638733 287.968842,669.638733 274.352051,669.638733 
	C274.352051,609.843628 274.352051,550.299377 274.352051,490.346100 
	C275.423553,490.239532 276.682678,490.006195 277.941956,490.005280 
	C296.266449,489.991852 314.595062,489.776031 332.914093,490.097504 
	C346.339081,490.333069 359.133392,493.324524 370.387543,501.222778 
	C381.357117,508.921387 387.855988,519.655701 390.623413,532.488953 
	C393.033295,543.664124 392.721588,554.936951 388.694702,565.837402 
	C383.613159,579.592651 374.166748,589.164978 360.618073,594.719543 
	C360.013489,594.967407 359.404785,595.206482 358.810272,595.476685 
	C358.670685,595.540039 358.581055,595.713318 357.770966,596.595886 
	C365.018982,606.470886 372.413330,616.545288 380.058777,626.880981 
M345.774536,556.888184 
	C349.853577,545.037964 348.947906,537.650269 340.479980,532.088562 
	C335.368317,528.731262 328.669708,527.384277 322.480591,526.180237 
	C315.415039,524.805725 315.012604,525.592712 315.011414,532.989929 
	C315.010620,537.822205 315.011261,542.654541 315.011261,547.486816 
	C315.011261,554.259521 315.011261,561.032227 315.011261,567.942627 
	C326.974762,568.540344 337.872925,568.024597 345.774536,556.888184 
z"/>
<path fill="#E96560" opacity="1.000000" stroke="none" 
	d="
M201.000946,631.987671 
	C215.467422,631.987671 229.434235,631.987671 243.690308,631.987671 
	C243.690308,644.605225 243.690308,656.845764 243.690308,669.408081 
	C209.339325,669.408081 175.088089,669.408081 140.469788,669.408081 
	C140.469788,609.810059 140.469788,550.252563 140.469788,490.341003 
	C174.679306,490.341003 208.931122,490.341003 243.583252,490.341003 
	C243.583252,502.510101 243.583252,514.875916 243.583252,527.808167 
	C223.427750,527.808167 203.357880,527.808167 183.004822,527.808167 
	C183.004822,537.441162 183.004822,546.515076 183.004822,556.140137 
	C202.187271,556.140137 221.258759,556.140137 240.667603,556.140137 
	C240.667603,568.911072 240.667603,581.138428 240.667603,593.846863 
	C221.606735,593.846863 202.529297,593.846863 183.085052,593.846863 
	C183.085052,606.691895 183.085052,619.064514 183.085052,631.987671 
	C188.930191,631.987671 194.715714,631.987671 201.000946,631.987671 
z"/>
<path fill="#EA6560" opacity="1.000000" stroke="none" 
	d="
M623.017212,630.000000 
	C623.017029,583.210144 623.017029,536.920288 623.017029,490.840698 
	C623.636780,490.451385 623.906494,490.133545 624.176086,490.133667 
	C646.332092,490.145874 668.523560,489.403900 690.635132,490.412842 
	C719.020142,491.708130 738.592529,509.139801 743.433289,536.983459 
	C746.621643,555.322327 743.976624,573.569397 730.842102,588.200623 
	C721.550049,598.551392 709.542114,604.909302 695.456116,605.853943 
	C685.800049,606.501526 676.065552,605.977966 665.879089,605.977966 
	C665.879089,627.412964 665.879089,648.316101 665.879089,669.475952 
	C651.476013,669.475952 637.562744,669.475952 623.017395,669.475952 
	C623.017395,656.363647 623.017395,643.431824 623.017212,630.000000 
M668.521362,568.212341 
	C673.432312,568.151611 678.434509,568.666504 683.234497,567.905518 
	C692.155151,566.491333 698.108704,561.120483 700.415771,552.262573 
	C702.471008,544.371460 699.779358,537.688049 693.536194,532.957520 
	C685.324341,526.735229 675.658813,527.496887 665.917297,528.235840 
	C665.917297,540.868408 665.878235,553.021362 665.989319,565.172913 
	C665.998535,566.179077 667.024292,567.175903 668.521362,568.212341 
z"/>
<path fill="#EA6560" opacity="1.000000" stroke="none" 
	d="
M40.638836,606.067505 
	C39.848850,608.189819 39.230530,610.269226 39.220741,612.351440 
	C39.140949,629.331970 39.062252,646.314392 39.252472,663.293152 
	C39.300652,667.593872 38.029083,669.205933 33.574421,669.053223 
	C24.927650,668.756775 16.255970,668.752441 7.609697,669.056335 
	C3.191516,669.211670 1.938239,667.732239 1.948629,663.367554 
	C2.085358,605.932434 2.053538,548.496887 2.086229,490.601807 
	C22.581993,490.145782 43.061272,489.854370 63.526932,490.256256 
	C77.276436,490.526306 89.967911,494.925140 100.228920,504.291382 
	C110.164345,513.360474 116.116051,524.986694 117.761421,538.367737 
	C119.201065,550.075745 118.739311,561.651978 113.958977,572.888855 
	C106.517448,590.381165 93.405777,601.254517 75.165710,604.603760 
	C64.094231,606.636719 52.468983,605.653931 40.638836,606.067505 
M51.485214,568.978882 
	C53.771137,568.635681 56.087650,568.429016 58.337597,567.925110 
	C67.223885,565.934937 73.053528,560.564514 74.758194,551.577698 
	C76.199562,543.978882 73.690063,537.293701 67.401535,532.728394 
	C59.200996,526.775024 49.693176,527.508972 40.136215,528.200806 
	C40.136215,541.603271 40.136215,554.682739 40.136215,567.885620 
	C43.782425,568.249023 47.197941,568.589417 51.485214,568.978882 
z"/>
<path fill="#E96560" opacity="1.000000" stroke="none" 
	d="
M1039.747192,490.014954 
	C1041.694214,490.014954 1043.173584,490.014954 1046.094971,490.014954 
	C1042.930420,495.095764 1040.367920,499.361450 1037.659912,503.532745 
	C1020.168884,530.475647 1002.656555,557.404602 985.120667,584.318359 
	C982.902588,587.722656 981.887146,591.244019 981.921692,595.428223 
	C982.109863,618.244629 982.011597,641.063293 982.011841,663.881226 
	C982.011841,665.662903 982.011841,667.444580 982.011841,669.480347 
	C967.895203,669.480347 954.310425,669.480347 940.016785,669.480347 
	C940.016785,667.616821 940.016785,665.860840 940.016785,664.104858 
	C940.017090,640.620728 940.104736,617.135864 939.907898,593.653381 
	C939.882996,590.690491 939.002625,587.338623 937.437988,584.845032 
	C918.480957,554.632751 899.312866,524.552856 880.244507,494.410187 
	C879.524414,493.271851 879.258789,491.846100 878.585083,490.023132 
	C894.981018,490.023132 910.622559,489.932281 926.258972,490.173981 
	C927.704773,490.196350 929.559387,492.058685 930.477661,493.531921 
	C939.435547,507.905151 948.232605,522.378601 957.080444,536.820374 
	C958.538940,539.201111 960.020996,541.567322 961.788269,544.417969 
	C967.516602,535.172058 973.110962,526.144897 978.702637,517.116028 
	C983.617676,509.179779 988.670227,501.323456 993.360840,493.256744 
	C994.848938,490.697632 996.527649,489.941681 999.307251,489.964996 
	C1012.630615,490.076782 1025.955444,490.015045 1039.747192,490.014954 
z"/>
<path fill="#EA6560" opacity="1.000000" stroke="none" 
	d="
M794.058960,529.217529 
	C791.073181,528.472290 788.164307,528.006042 785.250977,527.975830 
	C775.775146,527.877747 766.297668,527.939148 756.446045,527.939148 
	C756.446045,515.254456 756.446045,502.888275 756.446045,490.264587 
	C795.817932,490.264587 835.059143,490.264587 874.655334,490.264587 
	C874.655334,502.605316 874.655334,514.854919 874.655334,527.657227 
	C862.444824,527.657227 850.054199,527.657227 837.077881,527.657227 
	C837.077881,575.229919 837.077881,622.258179 837.077881,669.561279 
	C822.577271,669.561279 808.666443,669.561279 794.133850,669.561279 
	C794.133850,622.867554 794.133850,576.281860 794.058960,529.217529 
z"/>
<path fill="#000000" opacity="1.000000" stroke="none" 
	d="
M304.579407,203.382294 
	C303.124084,202.294022 301.937012,201.457748 300.221222,200.248978 
	C367.321136,142.758911 444.106110,107.453598 531.383545,92.895332 
	C526.660706,106.028358 522.246033,118.544754 517.662354,130.998962 
	C508.905426,154.792175 499.712860,178.432571 491.426605,202.387360 
	C488.601807,210.553558 481.860382,213.305740 475.789642,217.135696 
	C458.251465,228.200287 438.973145,234.860046 418.514801,237.751923 
	C398.038696,240.646301 378.041931,238.032059 358.409149,231.521103 
	C341.562103,225.933990 325.747925,218.439636 311.225250,208.237000 
	C309.080200,206.730042 306.972595,205.169830 304.579407,203.382294 
z"/>
<path fill="#000000" opacity="1.000000" stroke="none" 
	d="
M699.755798,166.207504 
	C694.087524,150.825592 688.458069,135.840668 682.888367,120.833611 
	C679.510620,111.732597 676.225281,102.597290 672.563782,92.559860 
	C759.694458,107.002464 836.246399,142.369659 903.925049,199.844925 
	C897.550720,204.395615 891.883545,209.129364 885.596252,212.801056 
	C866.705566,223.833054 846.991760,232.796967 825.090454,236.350266 
	C800.644592,240.316422 776.775940,238.354919 753.939392,229.013992 
	C742.003723,224.131897 730.980774,217.052216 719.387085,211.283722 
	C714.535645,208.869858 713.632446,204.232468 712.027893,200.072327 
	C707.754150,188.992065 703.863098,177.764282 699.755798,166.207504 
z"/>
<path fill="#000000" opacity="1.000000" stroke="none" 
	d="
M621.040039,328.930115 
	C618.023071,343.214844 615.005432,357.063202 612.074036,370.929810 
	C611.067444,375.691406 608.448486,377.813995 602.901672,378.005280 
	C596.898560,378.212311 592.907288,376.105316 592.008179,371.701538 
	C586.535156,344.895599 581.093384,318.082550 575.834229,291.234039 
	C573.740662,280.546021 572.124329,269.764038 570.331116,259.018127 
	C570.033447,257.234253 569.943420,255.415695 569.724854,253.297638 
	C591.271606,253.297638 612.510193,253.297638 634.680664,253.297638 
	C630.106262,278.578613 625.589783,303.539734 621.040039,328.930115 
z"/>
<path fill="#000000" opacity="1.000000" stroke="none" 
	d="
M689.904175,306.933289 
	C679.587830,278.907684 669.110779,251.352539 659.385254,223.534668 
	C657.656372,218.589661 658.768066,212.537247 659.074646,207.024353 
	C659.441162,200.432938 660.328979,193.869171 661.059570,187.301056 
	C661.142334,186.556625 661.666931,185.861359 662.671021,183.606216 
	C667.491516,188.888519 671.511719,193.869934 676.127686,198.219193 
	C683.320679,204.996658 690.934875,211.326019 698.319946,217.902145 
	C699.125427,218.619400 699.818909,219.629242 700.192078,220.640701 
	C709.651672,246.280350 719.133789,271.912201 728.442017,297.606903 
	C731.848328,307.009766 729.245850,315.379272 721.893555,320.276947 
	C711.506592,327.196136 704.296143,325.586243 696.760681,319.119781 
	C693.518066,316.337128 692.195007,311.317505 689.904175,306.933289 
z"/>
<path fill="#000000" opacity="1.000000" stroke="none" 
	d="
M523.169556,282.106720 
	C519.765259,291.611176 516.458801,300.734314 513.138733,309.852478 
	C508.025970,323.894104 493.846802,328.472809 481.615173,320.039032 
	C476.000092,316.167389 472.468170,306.821472 474.794373,300.285400 
	C482.679535,278.129761 490.811523,256.061920 498.851410,233.961334 
	C499.471039,232.258072 500.400116,230.608795 500.686737,228.853027 
	C501.976685,220.951401 508.000397,216.747803 513.320923,211.819870 
	C522.759094,203.078079 531.899414,194.014771 541.175964,185.098053 
	C541.500122,184.786469 541.948181,184.603775 542.598206,184.199478 
	C543.818970,194.858749 545.800171,205.273514 545.895569,215.705521 
	C545.948486,221.489746 543.143921,227.407883 541.115906,233.082932 
	C535.304138,249.346298 529.231384,265.516388 523.169556,282.106720 
z"/>
<path fill="#000000" opacity="1.000000" stroke="none" 
	d="
M572.889404,199.005508 
	C582.405640,173.013168 591.838013,147.406433 601.270386,121.799698 
	C601.666809,121.746323 602.063171,121.692947 602.459595,121.639572 
	C603.963318,125.304741 605.591614,128.924377 606.950623,132.642426 
	C616.063354,157.572586 625.115234,182.525024 634.201660,207.464813 
	C634.766418,209.014923 635.354919,210.571747 636.107056,212.035660 
	C639.939758,219.495224 638.114868,227.065491 636.586182,234.935547 
	C613.578125,234.935547 590.510864,234.935547 567.753540,234.935547 
	C562.168518,223.022186 567.744019,212.702881 571.778625,202.177719 
	C572.132935,201.253433 572.463867,200.320206 572.889404,199.005508 
z"/>
<path fill="#000000" opacity="1.000000" stroke="none" 
	d="
M581.060913,70.027916 
	C574.152405,70.444572 567.732788,70.840225 560.679871,71.274918 
	C561.179016,68.268700 561.361145,65.841843 561.999695,63.541695 
	C566.078857,48.848564 571.978210,34.934071 584.216492,25.233627 
	C596.068542,15.839315 608.215088,15.281409 620.899536,26.138239 
	C633.327820,36.775810 640.850952,56.034760 642.848694,70.006912 
	C622.453369,70.006912 602.001587,70.006912 581.060913,70.027916 
z"/>
<path fill="#000000" opacity="1.000000" stroke="none" 
	d="
M556.766968,121.286758 
	C556.767212,110.651497 556.767212,100.479607 556.767212,89.827690 
	C566.911926,89.638649 573.986328,94.630547 582.740356,97.123878 
	C574.304321,110.441971 566.242126,123.169952 558.179932,135.897934 
	C557.708862,135.751434 557.237854,135.604950 556.766785,135.458450 
	C556.766785,130.889008 556.766785,126.319565 556.766968,121.286758 
z"/>
<path fill="#000000" opacity="1.000000" stroke="none" 
	d="
M625.132019,102.706863 
	C621.810730,98.818268 622.176697,96.550041 627.079041,95.079514 
	C633.131653,93.263954 639.033691,90.946548 646.306519,88.386345 
	C646.306519,105.056732 646.306519,120.140533 646.306519,136.273468 
	C639.043518,124.777527 632.177124,113.909332 625.132019,102.706863 
z"/>
<path fill="#000000" opacity="1.000000" stroke="none" 
	d="
M518.793457,180.808533 
	C523.127258,168.587021 527.434204,156.355896 531.806580,144.148224 
	C533.888794,138.334610 536.095642,132.565628 538.728760,125.476738 
	C539.268433,137.057571 540.116577,147.230377 539.968567,157.388687 
	C539.928528,160.136124 537.204041,163.128571 535.133728,165.505066 
	C530.357178,170.987976 525.226257,176.162140 519.739624,181.390915 
	C519.091309,181.149704 518.942444,180.979126 518.793457,180.808533 
z"/>
<path fill="#000000" opacity="1.000000" stroke="none" 
	d="
M684.291199,181.808807 
	C678.058411,174.970276 671.762634,168.187057 665.656372,161.237411 
	C664.667480,160.111969 664.016418,158.231720 664.064331,156.727661 
	C664.373413,147.032074 664.920227,137.344086 666.068420,127.431152 
	C672.447937,144.970779 678.827454,162.510391 684.974915,180.677277 
	C684.592285,181.472626 684.441772,181.640717 684.291199,181.808807 
z"/>
<path fill="#000000" opacity="1.000000" stroke="none" 
	d="
M564.493042,169.447540 
	C563.172241,173.000397 562.028198,176.199677 560.945007,179.228928 
	C554.632263,165.462906 564.125000,157.204269 572.273376,148.454422 
	C569.738892,155.334274 567.204346,162.214111 564.493042,169.447540 
z"/>
<path fill="#000000" opacity="1.000000" stroke="none" 
	d="
M639.407898,156.609756 
	C644.769531,163.681076 644.769531,163.681076 642.890930,178.691727 
	C639.348999,169.052353 635.807129,159.412964 632.265198,149.773590 
	C632.694214,149.521591 633.123169,149.269592 633.552124,149.017593 
	C635.418457,151.459518 637.284790,153.901428 639.407898,156.609756 
z"/>
<path fill="#000000" opacity="1.000000" stroke="none" 
	d="
M631.211853,148.241623 
	C631.739746,147.792007 632.325012,147.771591 632.910217,147.751175 
	C632.877441,148.324036 632.844604,148.896912 632.811829,149.469757 
	C632.297607,149.203445 631.783386,148.937134 631.211853,148.241623 
z"/>
<path fill="#000000" opacity="1.000000" stroke="none" 
	d="
M519.459473,181.579559 
	C519.203369,182.176407 518.727905,182.513962 518.252502,182.851517 
	C518.252380,182.279541 518.252258,181.707565 518.522827,180.972061 
	C518.942444,180.979126 519.091309,181.149704 519.459473,181.579559 
z"/>
<path fill="#000000" opacity="1.000000" stroke="none" 
	d="
M684.972534,181.055908 
	C685.400940,181.451691 685.599609,182.096115 685.798340,182.740524 
	C685.415222,182.599701 685.032104,182.458862 684.470093,182.063416 
	C684.441772,181.640717 684.592285,181.472626 684.972534,181.055908 
z"/>
<path fill="#000000" opacity="1.000000" stroke="none" 
	d="
M558.058655,570.230591 
	C560.171509,584.864685 558.206482,598.341125 550.405579,610.572510 
	C540.173462,626.615967 525.352112,634.420776 506.354828,634.191162 
	C477.666565,633.844360 457.239471,614.613464 454.708679,585.922241 
	C453.040283,567.007751 458.015564,550.717224 472.402557,537.695801 
	C479.519684,531.254333 487.962524,527.240662 497.163147,526.190247 
	C520.391541,523.538025 538.085022,529.306641 551.271729,550.842041 
	C554.699524,556.440002 555.841248,563.437744 558.058655,570.230591 
z"/>
<path fill="#000000" opacity="1.000000" stroke="none" 
	d="
M345.532227,557.187927 
	C337.872925,568.024597 326.974762,568.540344 315.011261,567.942627 
	C315.011261,561.032227 315.011261,554.259521 315.011261,547.486816 
	C315.011261,542.654541 315.010620,537.822205 315.011414,532.989929 
	C315.012604,525.592712 315.415039,524.805725 322.480591,526.180237 
	C328.669708,527.384277 335.368317,528.731262 340.479980,532.088562 
	C348.947906,537.650269 349.853577,545.037964 345.532227,557.187927 
z"/>
<path fill="#000000" opacity="1.000000" stroke="none" 
	d="
M668.049561,568.194702 
	C667.024292,567.175903 665.998535,566.179077 665.989319,565.172913 
	C665.878235,553.021362 665.917297,540.868408 665.917297,528.235840 
	C675.658813,527.496887 685.324341,526.735229 693.536194,532.957520 
	C699.779358,537.688049 702.471008,544.371460 700.415771,552.262573 
	C698.108704,561.120483 692.155151,566.491333 683.234497,567.905518 
	C678.434509,568.666504 673.432312,568.151611 668.049561,568.194702 
z"/>
<path fill="#000000" opacity="1.000000" stroke="none" 
	d="
M51.049335,568.954346 
	C47.197941,568.589417 43.782425,568.249023 40.136215,567.885620 
	C40.136215,554.682739 40.136215,541.603271 40.136215,528.200806 
	C49.693176,527.508972 59.200996,526.775024 67.401535,532.728394 
	C73.690063,537.293701 76.199562,543.978882 74.758194,551.577698 
	C73.053528,560.564514 67.223885,565.934937 58.337597,567.925110 
	C56.087650,568.429016 53.771137,568.635681 51.049335,568.954346 
z"/>
</svg>